<svg width="22" height="21" viewBox="0 0 22 21" fill="none" xmlns="http://www.w3.org/2000/svg">
<path d="M16.9193 3.64688C16.6703 3.64688 16.4269 3.72072 16.2199 3.85906C16.0128 3.9974 15.8515 4.19403 15.7562 4.42408C15.6609 4.65413 15.636 4.90727 15.6845 5.1515C15.7331 5.39572 15.853 5.62005 16.0291 5.79612C16.2052 5.97219 16.4295 6.0921 16.6737 6.14068C16.9179 6.18926 17.1711 6.16433 17.4011 6.06904C17.6312 5.97375 17.8278 5.81238 17.9661 5.60534C18.1045 5.3983 18.1783 5.15488 18.1783 4.90588C18.1783 4.57197 18.0457 4.25174 17.8096 4.01564C17.5735 3.77953 17.2532 3.64688 16.9193 3.64688ZM21.7455 6.18586C21.7251 5.31536 21.562 4.45411 21.2629 3.63639C20.9961 2.93674 20.5809 2.3032 20.0458 1.77938C19.5263 1.2416 18.8913 0.829021 18.1888 0.57284C17.3733 0.264556 16.5111 0.0977904 15.6394 0.0797343C14.5272 0.0167846 14.1705 0.0167847 11.3168 0.0167847C8.46309 0.0167847 8.10638 0.0167846 6.99427 0.0797343C6.12257 0.0977904 5.26036 0.264556 4.4448 0.57284C3.74362 0.831615 3.10915 1.24384 2.58779 1.77938C2.05001 2.2989 1.63743 2.93392 1.38125 3.63639C1.07297 4.45195 0.906201 5.31416 0.888145 6.18586C0.825195 7.29797 0.825195 7.65468 0.825195 10.5084C0.825195 13.3621 0.825195 13.7188 0.888145 14.8309C0.906201 15.7026 1.07297 16.5649 1.38125 17.3804C1.63743 18.0829 2.05001 18.7179 2.58779 19.2374C3.10915 19.773 3.74362 20.1852 4.4448 20.444C5.26036 20.7522 6.12257 20.919 6.99427 20.9371C8.10638 21 8.46309 21 11.3168 21C14.1705 21 14.5272 21 15.6394 20.9371C16.5111 20.919 17.3733 20.7522 18.1888 20.444C18.8913 20.1878 19.5263 19.7752 20.0458 19.2374C20.5833 18.7156 20.9988 18.0815 21.2629 17.3804C21.562 16.5627 21.7251 15.7014 21.7455 14.8309C21.7455 13.7188 21.8084 13.3621 21.8084 10.5084C21.8084 7.65468 21.8084 7.29797 21.7455 6.18586ZM19.857 14.705C19.8493 15.371 19.7287 16.0309 19.5003 16.6565C19.3328 17.1131 19.0637 17.5256 18.7134 17.863C18.3731 18.2098 17.9614 18.4783 17.5069 18.6499C16.8813 18.8784 16.2214 18.999 15.5554 19.0066C14.5063 19.0591 14.1181 19.0696 11.3588 19.0696C8.59948 19.0696 8.21129 19.0696 7.16213 19.0066C6.47062 19.0196 5.78206 18.9131 5.12676 18.6919C4.69218 18.5115 4.29934 18.2436 3.97268 17.905C3.62445 17.5679 3.35876 17.155 3.1963 16.6985C2.94015 16.0639 2.79808 15.389 2.77664 14.705C2.77664 13.6559 2.71369 13.2677 2.71369 10.5084C2.71369 7.74911 2.71369 7.36092 2.77664 6.31175C2.78134 5.63091 2.90563 4.95618 3.14384 4.31835C3.32854 3.87551 3.61205 3.48076 3.97268 3.16427C4.29143 2.80353 4.68536 2.51704 5.12676 2.32494C5.76627 2.09417 6.44031 1.97355 7.12016 1.96823C8.16933 1.96823 8.55752 1.90528 11.3168 1.90528C14.0761 1.90528 14.4643 1.90528 15.5135 1.96823C16.1794 1.97586 16.8393 2.09648 17.4649 2.32494C17.9417 2.50188 18.3696 2.78956 18.7134 3.16427C19.0572 3.48655 19.3259 3.88057 19.5003 4.31835C19.7334 4.95722 19.8541 5.63167 19.857 6.31175C19.9094 7.36092 19.9199 7.74911 19.9199 10.5084C19.9199 13.2677 19.9094 13.6559 19.857 14.705ZM11.3168 5.1262C10.2528 5.12828 9.2132 5.4457 8.32949 6.03836C7.44577 6.63103 6.75755 7.47233 6.35179 8.45598C5.94604 9.43963 5.84095 10.5215 6.0498 11.5648C6.25866 12.6082 6.77209 13.5662 7.52522 14.3179C8.27835 15.0695 9.23738 15.5811 10.2811 15.7879C11.3249 15.9948 12.4065 15.8876 13.3894 15.4799C14.3723 15.0722 15.2122 14.3824 15.8032 13.4975C16.3941 12.6126 16.7095 11.5725 16.7095 10.5084C16.7109 9.80033 16.5723 9.09896 16.3016 8.44465C16.031 7.79034 15.6336 7.196 15.1325 6.6958C14.6313 6.1956 14.0362 5.79943 13.3813 5.53006C12.7265 5.26068 12.0249 5.12343 11.3168 5.1262ZM11.3168 14.0021C10.6258 14.0021 9.95035 13.7972 9.37581 13.4133C8.80127 13.0294 8.35348 12.4838 8.08905 11.8454C7.82462 11.207 7.75543 10.5045 7.89023 9.82681C8.02504 9.1491 8.35778 8.52658 8.84639 8.03798C9.33499 7.54937 9.95751 7.21663 10.6352 7.08182C11.3129 6.94702 12.0154 7.0162 12.6538 7.28064C13.2922 7.54507 13.8378 7.99286 14.2217 8.5674C14.6056 9.14194 14.8105 9.81741 14.8105 10.5084C14.8105 10.9672 14.7202 11.4215 14.5446 11.8454C14.369 12.2693 14.1117 12.6544 13.7872 12.9788C13.4628 13.3032 13.0777 13.5606 12.6538 13.7362C12.2299 13.9117 11.7756 14.0021 11.3168 14.0021Z" fill="#717D6B"/>
</svg>
