<svg width="22" height="21" viewBox="0 0 22 21" fill="none" xmlns="http://www.w3.org/2000/svg">
<path d="M16.4011 4.2271C16.1611 4.2271 15.9264 4.29829 15.7268 4.43165C15.5272 4.56502 15.3717 4.75458 15.2798 4.97635C15.188 5.19813 15.1639 5.44217 15.2107 5.67761C15.2576 5.91305 15.3732 6.12931 15.5429 6.29906C15.7127 6.4688 15.9289 6.58439 16.1644 6.63123C16.3998 6.67806 16.6438 6.65402 16.8656 6.56216C17.0874 6.47029 17.277 6.31473 17.4103 6.11513C17.5437 5.91554 17.6149 5.68088 17.6149 5.44082C17.6149 5.11893 17.487 4.81021 17.2594 4.58259C17.0318 4.35498 16.723 4.2271 16.4011 4.2271ZM21.0537 6.67478C21.0341 5.83559 20.8769 5.0053 20.5885 4.21699C20.3313 3.5425 19.931 2.93174 19.4152 2.42675C18.9144 1.90831 18.3022 1.51057 17.625 1.2636C16.8388 0.9664 16.0075 0.805632 15.1672 0.788225C14.0951 0.727539 13.7512 0.727539 11.0001 0.727539C8.24899 0.727539 7.9051 0.727539 6.83298 0.788225C5.99263 0.805632 5.16142 0.9664 4.37519 1.2636C3.69923 1.51307 3.08757 1.91047 2.58495 2.42675C2.06652 2.92759 1.66877 3.53977 1.4218 4.21699C1.1246 5.00322 0.963835 5.83443 0.946428 6.67478C0.885742 7.7469 0.885742 8.09078 0.885742 10.8419C0.885742 13.593 0.885742 13.9369 0.946428 15.009C0.963835 15.8493 1.1246 16.6806 1.4218 17.4668C1.66877 18.144 2.06652 18.7562 2.58495 19.257C3.08757 19.7733 3.69923 20.1707 4.37519 20.4202C5.16142 20.7174 5.99263 20.8781 6.83298 20.8955C7.9051 20.9562 8.24899 20.9562 11.0001 20.9562C13.7512 20.9562 14.0951 20.9562 15.1672 20.8955C16.0075 20.8781 16.8388 20.7174 17.625 20.4202C18.3022 20.1732 18.9144 19.7755 19.4152 19.257C19.9333 18.7539 20.3339 18.1426 20.5885 17.4668C20.8769 16.6785 21.0341 15.8482 21.0537 15.009C21.0537 13.9369 21.1144 13.593 21.1144 10.8419C21.1144 8.09078 21.1144 7.7469 21.0537 6.67478ZM19.2332 14.8876C19.2258 15.5297 19.1095 16.1658 18.8893 16.7689C18.7278 17.2091 18.4684 17.6068 18.1307 17.932C17.8026 18.2663 17.4057 18.5252 16.9676 18.6906C16.3644 18.9109 15.7283 19.0271 15.0863 19.0345C14.0749 19.0851 13.7006 19.0952 11.0405 19.0952C8.38047 19.0952 8.00624 19.0952 6.99481 19.0345C6.32816 19.047 5.66436 18.9443 5.03262 18.7311C4.61367 18.5572 4.23496 18.299 3.92005 17.9725C3.58434 17.6476 3.3282 17.2495 3.17158 16.8094C2.92465 16.1976 2.78769 15.547 2.76701 14.8876C2.76701 13.8762 2.70632 13.502 2.70632 10.8419C2.70632 8.18181 2.70632 7.80758 2.76701 6.79615C2.77154 6.13978 2.89137 5.48932 3.12101 4.87442C3.29907 4.44751 3.57238 4.06695 3.92005 3.76184C4.22733 3.41408 4.6071 3.13789 5.03262 2.9527C5.64914 2.73022 6.29894 2.61395 6.95435 2.60881C7.96578 2.60881 8.34001 2.54812 11.0001 2.54812C13.6602 2.54812 14.0344 2.54812 15.0458 2.60881C15.6879 2.61617 16.324 2.73245 16.9271 2.9527C17.3867 3.12328 17.7992 3.40061 18.1307 3.76184C18.4622 4.07253 18.7211 4.45238 18.8893 4.87442C19.1141 5.49032 19.2304 6.14052 19.2332 6.79615C19.2837 7.80758 19.2939 8.18181 19.2939 10.8419C19.2939 13.502 19.2837 13.8762 19.2332 14.8876ZM11.0001 5.65323C9.9743 5.65523 8.97212 5.96123 8.12018 6.53259C7.26825 7.10394 6.60478 7.91499 6.21361 8.86327C5.82244 9.81155 5.72113 10.8545 5.92248 11.8603C6.12382 12.8662 6.61879 13.7897 7.34484 14.5144C8.07089 15.239 8.99544 15.7322 10.0017 15.9316C11.0079 16.131 12.0506 16.0276 12.9981 15.6346C13.9457 15.2416 14.7554 14.5765 15.3251 13.7235C15.8948 12.8704 16.1989 11.8677 16.1989 10.8419C16.2002 10.1593 16.0666 9.48313 15.8057 8.85235C15.5447 8.22157 15.1617 7.64859 14.6785 7.16638C14.1954 6.68417 13.6217 6.30224 12.9904 6.04256C12.3591 5.78287 11.6827 5.65056 11.0001 5.65323ZM11.0001 14.21C10.3339 14.21 9.68276 14.0124 9.12888 13.6423C8.57501 13.2723 8.14331 12.7462 7.88839 12.1308C7.63347 11.5154 7.56677 10.8382 7.69673 10.1848C7.82669 9.53146 8.14746 8.93133 8.6185 8.4603C9.08953 7.98926 9.68967 7.66848 10.343 7.53853C10.9964 7.40857 11.6736 7.47527 12.289 7.73019C12.9044 7.98511 13.4305 8.41681 13.8005 8.97068C14.1706 9.52456 14.3682 10.1757 14.3682 10.8419C14.3682 11.2842 14.281 11.7222 14.1118 12.1308C13.9425 12.5394 13.6944 12.9107 13.3817 13.2235C13.0689 13.5362 12.6976 13.7843 12.289 13.9536C11.8804 14.1228 11.4424 14.21 11.0001 14.21Z" fill="#717D6B"/>
</svg>
