<svg width="23" height="22" viewBox="0 0 23 22" fill="none" xmlns="http://www.w3.org/2000/svg">
<path fill-rule="evenodd" clip-rule="evenodd" d="M11.1253 0.165344C5.09624 0.165344 0.208008 5.05357 0.208008 11.0827C0.208008 17.1118 5.09624 22 11.1253 22C17.1544 22 22.0426 17.1118 22.0426 11.0827C22.0426 5.05357 17.1544 0.165344 11.1253 0.165344ZM16.1855 7.59003C16.0217 9.31588 15.3103 13.5054 14.9491 15.4387C14.7963 16.2575 14.4942 16.5313 14.2031 16.5577C13.569 16.6159 13.0877 16.1383 12.4736 15.7362C11.5129 15.1066 10.9698 14.7145 10.0372 14.0995C8.95915 13.3889 9.65786 12.9987 10.272 12.3609C10.433 12.1935 13.226 9.6525 13.2806 9.42232C13.287 9.39321 13.2942 9.28586 13.2296 9.22945C13.165 9.17304 13.0713 9.19215 13.004 9.20761C12.9076 9.22945 11.3728 10.2439 8.39873 12.2508C7.96294 12.5501 7.5681 12.6957 7.2142 12.6884C6.82481 12.6802 6.07516 12.4683 5.51746 12.2863C4.83422 12.0643 4.29017 11.946 4.33748 11.5694C4.36205 11.3729 4.63225 11.1718 5.149 10.9662C8.3314 9.57971 10.4539 8.66539 11.5156 8.22324C14.5479 6.96229 15.1775 6.74303 15.5887 6.73575C16.1036 6.72847 16.2274 7.15334 16.1855 7.59003Z" fill="#717D6B"/>
</svg>
