<svg width="22" height="22" viewBox="0 0 22 22" fill="none" xmlns="http://www.w3.org/2000/svg">
<path fill-rule="evenodd" clip-rule="evenodd" d="M11.0003 0C5.18804 0 0.475586 4.71245 0.475586 10.5247C0.475586 16.337 5.18804 21.0495 11.0003 21.0495C16.8126 21.0495 21.5251 16.337 21.5251 10.5247C21.5251 4.71245 16.8126 0 11.0003 0ZM15.8785 7.1577C15.7207 8.82149 15.0348 12.8604 14.6866 14.7241C14.5393 15.5135 14.2481 15.7775 13.9674 15.8029C13.3561 15.859 12.8921 15.3986 12.3001 15.0109C11.374 14.404 10.8503 14.026 9.95136 13.4331C8.91204 12.7481 9.58563 12.3718 10.1776 11.757C10.3329 11.5956 13.0255 9.146 13.0781 8.9241C13.0842 8.89604 13.0912 8.79255 13.029 8.73817C12.9667 8.68379 12.8764 8.70221 12.8115 8.71712C12.7185 8.73817 11.2389 9.71609 8.37177 11.6509C7.95166 11.9394 7.57102 12.0798 7.22984 12.0728C6.85446 12.0649 6.13176 11.8605 5.59412 11.6851C4.93545 11.4711 4.41096 11.3571 4.45657 10.994C4.48025 10.8045 4.74074 10.6107 5.23891 10.4125C8.30687 9.07584 10.3531 8.19439 11.3766 7.76814C14.2998 6.55253 14.9068 6.34116 15.3032 6.33414C15.7996 6.32712 15.9189 6.73671 15.8785 7.1577Z" fill="#717D6B"/>
</svg>
