<svg width="167" height="103" viewBox="0 0 167 103" fill="none" xmlns="http://www.w3.org/2000/svg">
<path d="M81.8565 39.8133C80.771 38.0029 79.6369 36.2147 78.4136 34.4895C77.9603 33.8488 77.3755 32.5868 76.4262 32.9677L76.3135 33.1923L76.3562 33.3702L76.4415 33.4116C76.5384 33.3702 80.0979 40.4276 80.4509 41.0832C81.8868 43.6543 82.7068 46.5059 82.8498 49.4261C82.8673 49.757 83.3219 49.9717 83.5285 49.6383C85.486 46.4728 83.5656 42.6637 81.8565 39.8133Z" fill="#717D6B"/>
<path d="M166.694 89.3338C164.44 88.1984 162.501 86.3085 160.342 84.9795C158.31 83.7064 156.186 82.5784 153.986 81.6043C150.677 80.1624 147.135 79.2846 143.518 79.01C144.979 78.2518 146.404 77.4279 147.792 76.5377C151.596 74.1172 155.044 71.2093 158.043 67.8928C161.304 65.112 163.376 61.252 163.854 57.0686L163.657 57.0826C162.855 59.4531 161.446 61.5875 159.562 63.2871C158.234 64.8039 156.825 66.2512 155.339 67.6232C152.343 70.4321 149.04 72.916 145.488 75.0305C141.931 77.1362 138.142 78.8483 134.19 80.1342C132.303 80.7443 130.421 81.3822 128.487 81.8429C127.16 82.1594 125.798 82.3836 124.46 82.6744C120.739 81.4186 117.101 79.9618 113.396 78.5922C111.095 77.7232 108.745 76.9803 106.358 76.3677C108.823 75.9876 111.124 74.9312 112.988 73.3226L113.435 72.904L115.762 71.836C120.886 69.5743 126.178 67.6881 131.592 66.1932C136.931 64.6777 142.351 63.4389 147.754 62.1637C153.158 61.3757 158.385 59.7117 163.219 57.2415C163.355 57.1687 163.457 57.0479 163.504 56.9039C163.551 56.7596 163.538 56.6036 163.468 56.4688C163.399 56.3335 163.278 56.2297 163.132 56.1788C162.985 56.128 162.824 56.1342 162.682 56.1958C158.833 57.5583 154.88 58.6246 150.858 59.3845C152.147 58.0245 153.344 56.5842 154.441 55.0736C157.61 50.8773 160.442 46.4511 162.911 41.8345L162.714 41.7105C160.036 45.3442 157.114 48.8576 154.278 52.3788C152.86 54.1396 151.519 55.9952 149.947 57.6319C148.466 59.2443 146.462 60.3201 144.265 60.6812L144.024 60.7892C139.599 61.7405 135.205 62.8126 130.864 64.0821L129.58 64.4701C130.764 63.5977 131.905 62.6571 133.037 61.6963C136.423 58.8232 139.669 55.8004 143.324 53.2445C151.003 49.0834 158.111 44.0049 164.483 38.1276L164.604 37.9911C165.003 37.5254 164.415 36.8743 163.884 36.974C161.113 37.697 158.387 38.5727 155.72 39.5968C153.29 40.2925 150.899 41.1074 148.554 42.0372C145.848 43.1106 143.381 44.6791 141.288 46.6567C142.729 43.7695 143.473 40.6023 143.465 37.3955C143.355 34.5187 143.086 31.6497 142.659 28.8011C142.455 27.2983 142.232 25.7964 141.949 24.3061C141.807 23.5616 141.665 22.8138 141.474 22.0796C141.279 21.328 140.874 20.6666 140.697 19.9126C140.669 19.793 140.609 19.6826 140.524 19.592C140.439 19.5014 140.331 19.434 140.211 19.3955C140.09 19.357 139.962 19.3496 139.838 19.3732C139.714 19.3972 139.598 19.4514 139.502 19.5312C137.747 20.5822 136.069 21.7482 134.478 23.0206C133.069 24.2701 131.752 25.614 130.537 27.0423C128.101 29.9117 126.008 33.0387 124.296 36.3639C123.927 29.4281 122.388 22.5978 119.741 16.144C119.722 16.0666 119.687 15.9942 119.635 15.9318C119.585 15.8697 119.52 15.8193 119.446 15.7841C119.373 15.7494 119.292 15.7307 119.21 15.7295C119.128 15.7287 119.047 15.7456 118.972 15.7787C116.772 16.632 114.438 17.1768 112.218 17.995C110.009 18.8111 107.846 19.7384 105.737 20.7729C101.807 22.638 98.1307 24.9671 94.7919 27.7074L94.4995 27.9581C94.5725 27.106 94.5072 26.2481 94.3062 25.4159C93.4175 22.2239 92.0272 19.1837 90.1837 16.4017C88.449 13.7652 86.4808 11.2801 84.3013 8.97451C81.8269 6.74918 79.9308 3.98778 78.7685 0.916161C78.7531 0.849152 78.7113 0.790835 78.652 0.753608C78.5927 0.716381 78.5205 0.70356 78.4514 0.71721C78.3822 0.730859 78.3212 0.770567 78.2819 0.827648C78.2426 0.884315 78.2277 0.953806 78.2409 1.02123C78.634 3.54024 79.5471 5.95707 80.9262 8.12615C82.4373 10.4838 84.2983 12.6087 85.9383 14.8807C87.7268 17.3638 89.2455 20.0193 90.4705 22.8051C91.2278 24.0555 91.6853 25.4548 91.8091 26.8996C91.9329 28.3444 91.7203 29.7979 91.1864 31.1521C86.7651 35.4837 84.2095 41.2828 84.0392 47.3731C81.0069 48.3836 78.3126 50.1692 76.2407 52.5405C73.5208 56.3368 72.4256 61.0071 73.1853 65.5699C73.4739 68.105 74.0399 70.603 74.8739 73.0219C75.3516 74.439 76.1327 75.7419 77.1657 76.8463C74.0484 76.132 70.8949 75.5756 67.7174 75.1806C63.8506 72.1665 60.8281 68.2585 58.9274 63.8165C57.027 59.3741 56.3095 54.54 56.8409 49.7589C56.5016 44.7659 58.1654 39.8388 61.485 36.0057C63.2577 34.3284 65.4761 33.1615 67.8929 32.6342C70.3101 32.1072 72.8302 32.2408 75.1736 33.0201C75.5945 33.1491 75.7567 32.5742 75.3776 32.4046C73.5648 31.6489 71.6086 31.27 69.6353 31.2928C67.6619 31.3155 65.7155 31.7391 63.9219 32.5365C63.9825 31.9926 63.9684 31.4433 63.8886 30.9015C63.8677 28.6517 64.035 26.4041 64.3889 24.1808C64.9267 21.3429 65.9178 18.6034 67.3269 16.0612C70.3046 10.7792 74.6063 6.30287 77.7308 1.09402C78.115 0.45662 77.2246 -0.397527 76.6531 0.205546C74.3605 2.6803 72.2066 5.27252 70.2012 7.97104C68.1532 10.4876 66.3605 13.1902 64.8482 16.0406C63.3397 19.1039 62.4467 22.4175 62.2162 25.8043C61.0586 23.4445 59.5326 21.2717 57.6916 19.3624C55.5997 17.2397 53.3246 15.294 50.8902 13.5468C48.1746 11.5026 45.4467 9.48534 42.5752 7.65006C42.3162 7.48461 41.9849 7.84117 42.2146 8.0608C46.425 12.0966 51.2526 15.4999 55.2633 19.7347C57.2012 21.7085 58.8266 23.9496 60.0867 26.385C60.6898 27.6011 61.1576 28.8759 61.4816 30.1884C61.6182 31.2911 61.8346 32.3827 62.1291 33.4561C59.1583 35.3244 56.9869 38.1727 56.0163 41.473C54.8663 45.7107 54.5441 50.1191 55.0661 54.4714C55.2735 58.9564 56.4034 63.3557 58.39 67.4118C56.2766 65.4863 54.3669 63.3607 52.6894 61.0675C50.3191 57.787 48.2015 54.3419 45.8133 51.0734L45.3566 50.4753C43.4486 45.884 42.3145 41.0251 41.9982 36.0847C41.1342 29.3024 40.8367 22.4634 41.1086 15.6348C41.194 16.9518 41.3425 18.2626 41.5461 19.5746C42.2649 23.8135 43.4836 27.9585 45.1773 31.9281C46.0827 33.9979 46.8109 36.1364 47.3542 38.3216C47.7606 40.5134 47.9809 42.7338 48.0133 44.9604C48.1251 49.0975 49.3553 53.1337 51.58 56.6661C51.6253 56.7538 51.7047 56.8208 51.8007 56.8518C51.8967 56.8828 52.0018 56.8754 52.0922 56.8315C52.1827 56.7877 52.2519 56.7108 52.2839 56.6177C52.3159 56.5246 52.3082 56.4229 52.263 56.3352C50.6132 52.232 49.8214 47.852 49.9337 43.4498C50.0015 41.4999 49.856 39.5484 49.4996 37.6283C49.0185 35.6826 48.3718 33.7787 47.5664 31.9364C45.8594 27.9883 44.5114 23.9037 43.5378 19.7285C43.0875 17.619 42.7695 15.4735 42.5061 13.3338C42.2474 11.2387 42.3482 9.02539 41.9085 6.96717L41.6597 6.95392L41.3694 8.06121L41.188 8.24776C38.5036 17.6343 38.0464 27.4874 39.8503 37.0695C40.135 40.0816 40.6493 43.0692 41.3886 46.0081C36.4073 41.3539 30.5463 37.6743 24.1269 35.171C21.722 34.1592 19.1975 33.4399 16.6105 33.0284C15.2523 32.8075 13.8738 32.7252 12.4979 32.7835C11.0526 33.078 9.58464 33.2567 8.10903 33.3171C8.03305 33.3138 7.95728 33.327 7.8874 33.356C7.81753 33.3853 7.75538 33.4292 7.70561 33.485C7.65588 33.5408 7.61986 33.6066 7.60031 33.6782C7.58072 33.7493 7.57807 33.8238 7.59254 33.8962C8.67955 36.4114 10.2947 38.6806 12.3352 40.5585L12.4283 40.6598C9.23565 39.5435 5.74783 39.5029 2.52842 40.5444C1.72279 40.7678 0.998088 41.2062 0.436868 41.8093L0.287471 41.9438L0.312656 41.9851C0.167485 42.211 0.0715723 42.4633 0.0309364 42.7263C-0.260174 44.615 1.57356 46.5264 2.57921 47.9703C7.93274 55.7764 14.1405 62.9996 21.0946 69.5143C23.149 71.6279 25.7058 73.2233 28.5418 74.1606C26.7435 74.2561 24.955 74.4816 23.1913 74.8348C19.3705 75.6534 15.8092 77.3522 12.8095 79.7872C9.75469 82.458 6.91249 85.3485 4.3071 88.4342L4.4868 88.6281C6.94424 86.1542 9.59531 83.8681 12.4163 81.7904C15.3597 79.4625 18.7717 77.755 22.4345 76.7768C26.2095 75.9355 30.1032 75.7117 33.9546 76.115C36.2549 76.3131 38.4976 76.9199 40.5708 77.9052C42.0729 80.2563 43.8293 82.4448 45.8108 84.4343C46.7332 85.3696 47.7111 86.2523 48.7398 87.077C42.3281 86.1819 35.788 86.8396 29.7024 88.9905C25.3989 90.3509 20.9896 91.3755 16.5171 92.0538C12.0784 92.7686 7.5233 92.3248 3.32022 90.7683L3.19644 91.0226C5.03205 92.1932 7.04967 93.0709 9.1723 93.6223C10.6206 94.2878 12.0668 94.9559 13.5599 95.5279C15.9838 96.4565 18.4429 97.2933 20.9371 98.0382C25.7451 99.4495 30.6444 100.551 35.6031 101.334C44.9758 103.69 54.912 102.689 63.5834 98.5131C67.5305 96.2121 71.0592 93.3129 74.8138 90.7368C75.9505 90.1069 76.9877 89.3214 77.8935 88.4052C77.9724 88.322 78.0164 88.2133 78.0168 88.1003C78.0177 87.987 77.975 87.8778 77.8969 87.7938C77.8192 87.7095 77.7116 87.6565 77.5955 87.6449C77.4799 87.6334 77.3633 87.664 77.2694 87.731C73.5738 90.1147 69.2071 91.3316 64.7692 91.215C60.3313 91.0979 56.0393 89.6527 52.4828 87.0779C48.8661 84.6163 45.7275 81.5534 43.2134 78.0309C41.6511 76.0492 40.4035 73.852 39.5109 71.5129C39.2369 70.7233 39.0734 69.9014 39.0239 69.0696C39.3538 69.5085 39.7444 69.9019 40.1845 70.2381C42.1467 71.5597 44.3202 72.5586 46.6179 73.1948C49.0851 74.0051 51.6091 74.645 54.1697 75.1095C59.1685 76.043 64.2433 76.5117 69.2737 77.2434C72.2343 77.6471 75.1676 78.222 78.0574 78.9657C80.4477 79.6036 83.6115 80.7146 84.0332 83.2381C83.7315 85.7244 84.259 88.2389 85.5387 90.4134C86.8184 92.5878 88.7828 94.3085 91.1445 95.3227L91.2726 95.058C89.0662 93.4498 87.5039 91.1505 86.8509 88.5512C86.1572 87.2785 85.861 85.8374 85.9985 84.4041C86.1359 82.9709 86.701 81.6076 87.6247 80.4804C90.0817 78.7713 92.9287 77.6649 95.9235 77.255C98.9178 76.845 101.97 77.1441 104.819 78.1265C110.847 79.5539 116.432 82.2984 122.263 84.2925C127.367 86.1459 132.671 87.4352 138.073 88.1351L137.202 88.5694C135.143 89.5754 133.167 90.7327 131.291 92.0315C127.503 94.8376 123.25 97 118.715 98.4266C114.513 99.574 110.141 100.02 105.785 99.7457C103.556 99.6154 101.341 99.311 99.1633 98.8357C96.9987 98.3683 94.9802 97.3826 92.834 96.9111L92.6496 97.1866C94.357 98.4072 96.2744 99.3246 98.313 99.8959C100.319 100.6 102.392 101.108 104.502 101.412C109.002 102.037 113.583 101.804 117.991 100.727L119.457 100.336C128.165 102.286 137.173 102.646 146.017 101.396C154.184 100.365 161.645 96.3738 166.897 90.2252C166.991 90.0808 167.022 89.9058 166.984 89.7392C166.946 89.572 166.842 89.4264 166.694 89.3338ZM53.4355 90.1838C57.4099 92.3603 61.9537 93.365 66.509 93.0738C67.1881 93.0255 67.8719 92.9444 68.5532 92.8352C67.3503 93.6211 66.1586 94.4363 64.9391 95.2255C61.1038 97.8236 56.6847 99.4983 52.0483 100.111C47.3308 100.549 42.574 100.365 37.9072 99.5654C32.8457 98.8365 27.8396 97.7901 22.8673 96.6286C20.1512 95.9945 17.4497 95.3012 14.7623 94.5493L13.4694 94.196C13.7844 94.2018 14.1011 94.203 14.4212 94.1939C18.8497 93.9226 23.2228 93.0929 27.4298 91.7258C31.7145 90.3034 36.1192 89.2436 40.593 88.5595C44.9468 88.0578 49.3609 88.6161 53.4355 90.1838ZM0.797127 42.7751L1.49801 43.8398C1.16554 43.5561 0.922577 43.1871 0.797127 42.7751ZM52.1849 72.8697C49.9794 72.4076 47.8093 71.7979 45.6908 71.0451C43.8012 70.3618 40.9161 69.5147 40.018 67.5653C39.837 67.2707 39.7393 66.9353 39.7333 66.5924C39.7278 66.2499 39.8153 65.9116 39.9864 65.6117C40.1572 65.3118 40.4064 65.0603 40.7091 64.8829C41.0117 64.705 41.357 64.6074 41.7105 64.5991C43.1101 64.5619 44.4935 64.8953 45.7122 65.5633C47.9424 66.7256 49.9678 68.2242 51.7132 70.0019L51.7559 69.9639C49.0932 66.9688 46.0579 63.0004 41.471 63.1117C40.7065 63.1005 39.9621 63.3487 39.3662 63.8124C38.7703 64.2765 38.3601 64.9275 38.2065 65.6535C37.1701 68.5373 37.3528 71.702 38.7157 74.4555L39.1946 75.4627C38.0379 75.0081 36.8307 74.6838 35.5972 74.4969C34.0699 74.2578 32.5268 74.1287 30.9799 74.111C26.8942 72.7435 23.3283 70.215 20.7471 66.855C17.3682 63.3396 14.1206 59.7079 11.0043 55.96C8.65667 53.1353 6.51262 50.1692 4.28575 47.261C5.21794 48.2272 6.2128 49.1347 7.26429 49.9781C10.421 52.3689 13.737 54.5553 17.1906 56.5234C20.6212 58.6172 24.1692 60.5687 27.435 62.9028C29.0105 64.0122 30.4993 65.2328 31.8891 66.5548C32.9183 67.8883 34.0631 69.1337 35.3116 70.2774C35.3581 70.3056 35.4115 70.3217 35.4665 70.3238C35.5216 70.3262 35.5762 70.3147 35.6253 70.2903C35.674 70.2659 35.7158 70.2299 35.7461 70.1852C35.7764 70.1409 35.7939 70.0896 35.7978 70.0363C35.5387 68.5662 34.8318 67.2054 33.7681 66.1279C32.6715 64.7443 31.4085 63.4931 30.0054 62.3998C26.8306 60.0459 23.4977 57.8987 20.0292 55.9724C12.8201 52.5935 6.31119 47.9629 0.824871 42.3102C0.940931 42.0087 1.13971 41.7436 1.39984 41.5434C1.7974 41.2886 2.25891 41.1438 2.73501 41.1239C4.05419 41.0044 5.38326 41.0358 6.69488 41.217C8.0374 41.3593 9.36528 41.61 10.6646 41.9669C11.7144 42.34 12.7902 42.6407 13.8838 42.867L14.3171 42.7305C15.8987 44.4586 17.4842 46.1835 19.0735 47.905C21.2636 50.2718 23.42 52.6725 25.6875 54.9706C28.1009 57.4172 30.6611 59.7038 33.1184 62.1024L33.3361 61.913C31.2873 59.4171 29.3588 56.8394 27.2749 54.368C25.1974 51.9056 22.9949 49.5454 20.8257 47.1592L20.6387 46.9553C22.5634 48.2053 24.5657 49.3362 26.5693 50.3735C34.008 53.3819 40.8704 57.5839 46.8676 62.8031C47.2232 63.1828 47.7713 62.679 47.4686 62.2803C42.425 56.4779 36.0586 51.8916 28.8717 48.8828C25.3123 47.1741 21.9043 45.1837 18.6825 42.9319C15.1371 40.3169 12.5969 36.7725 9.33237 33.8941C10.3635 33.789 11.4041 33.8052 12.4313 33.9421C13.744 34.0248 15.049 34.1977 16.3365 34.4595C18.6523 34.9712 20.9098 35.7041 23.076 36.6485C27.5656 38.6169 31.8328 41.0309 35.8089 43.8518C39.0435 46.229 41.8479 49.1103 44.1076 52.3788C44.3988 52.8293 44.7116 53.264 45.0467 53.6838C47.0059 56.4498 48.8503 59.3191 50.9449 62.0292C53.252 65.4288 56.4055 68.2113 60.1144 70.1194C61.5316 72.0395 63.3363 73.6605 65.4197 74.8836C60.9933 74.3186 56.5494 73.8086 52.1849 72.8697ZM150.428 43.2165C152.823 42.4273 155.282 41.8391 157.694 41.1024L159.585 40.5308C154.146 44.5918 147.759 47.4665 142.16 51.3009C138.744 53.8336 135.536 56.6198 132.566 59.6343C134.549 57.3593 136.364 54.9524 137.998 52.4305C138.681 51.3836 139.342 50.3173 139.957 49.2307C142.855 46.3861 146.462 44.3147 150.428 43.2165ZM139.359 21.3284C139.351 21.716 139.369 22.104 139.41 22.4895L139.757 24.7413C139.963 26.0533 140.171 27.3649 140.347 28.6811C140.706 31.3527 141.026 34.0496 141.12 36.7436C140.999 41.957 139.22 47.0074 136.028 51.2049C133.329 55.3053 130.142 59.0846 126.534 62.4652C123.612 65.4111 120.019 67.6521 116.041 69.008C118.458 64.9797 121.151 61.113 124.103 57.435C126.994 54.528 129.568 51.3414 131.786 47.9244C133.928 43.8973 135.482 39.6009 136.401 35.159C136.914 33.0772 137.341 30.9863 137.739 28.8813C138.352 26.4926 138.77 24.0609 138.992 21.6089L139.359 21.3284ZM125.599 38.2335C127.274 34.9013 129.305 31.7486 131.657 28.8263C132.877 27.3306 134.202 25.9176 135.622 24.5982C136.436 23.8412 137.287 23.0264 138.174 22.2711C137.422 24.2189 137.035 26.4074 136.498 28.3841C135.883 30.6425 135.332 32.9163 134.714 35.1734C133.592 39.5621 131.761 43.7513 129.289 47.5861C125.874 52.6957 120.192 56.9486 117.241 62.4474L117.244 62.2588L117.206 60.8078C118.213 57.3688 119.487 53.9651 120.629 50.5837C121.982 46.3576 123.642 42.2316 125.599 38.2335ZM102.71 75.6286C100.446 75.2625 98.1457 75.1624 95.8573 75.3303C93.7269 75.3365 91.6277 75.825 89.727 76.757C87.8262 77.6884 86.176 79.0377 84.9083 80.6968C83.4515 79.0873 81.5238 77.9457 79.381 77.4241L77.9951 77.049C77.1465 75.4966 76.5754 73.8165 76.3047 72.0796C75.7161 69.7132 75.3239 67.3051 75.1309 64.8779C74.8411 62.6985 75.0438 60.4839 75.7242 58.3876C76.4051 56.2918 77.5477 54.3638 79.0733 52.7378C82.5 50.2035 86.4539 48.4212 90.6618 47.5137C95.5577 46.248 100.325 44.5533 104.904 42.4509C105.039 42.3805 105.144 42.2656 105.2 42.127C105.256 41.9884 105.259 41.835 105.209 41.6943C105.159 41.5537 105.058 41.435 104.927 41.3593C104.794 41.2836 104.638 41.2563 104.487 41.2815C101.551 41.7659 98.6664 42.51 95.8706 43.5048C93.0722 44.3962 90.2712 45.2809 87.4753 46.1797C86.6118 46.4573 85.7445 46.7456 84.8861 47.0562C85.7014 43.5722 87.0848 40.2363 88.9838 37.1742C91.0566 33.9706 93.6501 31.1128 96.6637 28.7109C100.02 26.0914 103.681 23.8602 107.571 22.063C109.453 21.1621 111.36 20.3146 113.268 19.4658C115.098 18.651 116.909 17.698 118.783 16.9679C121.27 24.872 122.338 33.1314 121.939 41.3858C120.896 43.8783 119.99 46.4221 119.223 49.0073C118.27 52.2043 117.686 55.4558 117.022 58.6966C116.687 55.9071 115.897 53.1866 114.68 50.6378C113.823 48.8596 112.701 47.2134 111.35 45.7508C110.009 44.3242 108.374 43.1863 106.551 42.4095L106.386 42.5977C111.462 47.517 114.466 54.0921 114.812 61.0411C115.229 64.6471 114.178 68.2684 111.879 71.1337L110.912 72.1231L108.707 73.2345C106.768 74.168 104.764 74.968 102.71 75.6286ZM130.696 84.5125L128.624 83.9665L128.927 83.9177C131.189 83.5761 133.417 83.0557 135.591 82.3625C136.734 81.9827 137.86 81.5662 138.971 81.1125L139.112 81.2622C140.188 82.0187 141.721 82.6706 142.349 83.8611C142.52 84.1506 142.617 84.4761 142.629 84.8099C142.641 85.1437 142.569 85.4754 142.418 85.7757C141.851 86.634 140.614 86.3672 139.74 86.2357C136.702 85.7778 133.679 85.2438 130.696 84.5125ZM145.067 99.2167C137.371 100.124 129.598 100.234 121.877 99.5451C124.904 98.4126 127.776 96.9243 130.429 95.1139C131.818 94.1791 133.182 93.2079 134.569 92.2714C140.397 93.2645 146.307 93.7381 152.225 93.6856C154.97 93.8089 157.721 93.6492 160.431 93.2091L161.328 92.9717C156.448 96.1868 150.895 98.3195 145.067 99.2167ZM161.928 91.0781C160.952 91.287 159.962 91.4218 158.965 91.4822C156.175 91.7304 153.355 91.72 150.556 91.7304C145.624 91.7477 140.698 91.6315 135.771 91.4797L137.055 90.6711C138.145 90.0093 139.263 89.3822 140.408 88.813C141.717 88.1814 142.908 87.3446 143.935 86.337C144.109 85.8882 144.179 85.4084 144.142 84.9307C144 83.9037 143.539 82.9424 142.821 82.1743C142.103 81.4062 141.162 80.8672 140.121 80.6289L141.977 79.781C145.955 80.3981 149.801 81.6473 153.359 83.478C155.371 84.448 157.347 85.4796 159.288 86.5728C161.044 87.5614 163.139 88.4432 164.862 89.596C163.942 90.1908 162.958 90.6876 161.928 91.0781Z" fill="#717D6B"/>
</svg>
