<svg width="263" height="237" viewBox="0 0 263 237" fill="none" xmlns="http://www.w3.org/2000/svg">
<path d="M128.922 62.6077C127.219 59.7838 125.439 56.9949 123.52 54.3039C122.809 53.3046 121.892 51.3363 120.402 51.9304L120.225 52.2808L120.292 52.5582L120.426 52.6227C120.578 52.5582 126.163 63.5657 126.717 64.5883C128.969 68.5985 130.256 73.0462 130.48 77.6009C130.508 78.117 131.221 78.4519 131.545 77.9319C134.616 72.9946 131.603 67.0534 128.922 62.6077Z" fill="#717D6B"/>
<path d="M262.02 139.847C258.484 138.076 255.442 135.128 252.054 133.055C248.867 131.07 245.535 129.31 242.083 127.791C236.891 125.542 231.335 124.173 225.66 123.745C227.953 122.562 230.187 121.277 232.366 119.889C238.333 116.113 243.743 111.578 248.448 106.405C253.563 102.068 256.815 96.0471 257.564 89.522L257.255 89.544C255.997 93.2413 253.786 96.5703 250.83 99.2212C248.748 101.587 246.537 103.844 244.205 105.984C239.505 110.366 234.323 114.24 228.75 117.538C223.171 120.822 217.225 123.492 211.026 125.498C208.066 126.45 205.112 127.445 202.079 128.163C199.996 128.657 197.86 129.006 195.76 129.46C189.922 127.501 184.215 125.229 178.403 123.093C174.793 121.738 171.106 120.579 167.361 119.623C171.228 119.031 174.838 117.383 177.762 114.874L178.463 114.221L182.115 112.555C190.153 109.027 198.455 106.086 206.95 103.754C215.325 101.39 223.829 99.458 232.306 97.469C240.783 96.24 248.985 93.6445 256.567 89.7917C256.782 89.6781 256.942 89.4898 257.015 89.2653C257.088 89.0401 257.068 88.7969 256.959 88.5866C256.851 88.3756 256.661 88.2137 256.431 88.1343C256.201 88.055 255.948 88.0646 255.725 88.1608C249.687 90.2859 243.485 91.9491 237.175 93.1342C239.198 91.013 241.076 88.7665 242.796 86.4105C247.768 79.8654 252.211 72.9617 256.085 65.7612L255.776 65.5676C251.574 71.2353 246.991 76.7152 242.541 82.2073C240.316 84.9537 238.213 87.8479 235.747 90.4007C233.423 92.9155 230.278 94.5935 226.832 95.1567L226.453 95.3251C219.512 96.809 212.618 98.4812 205.808 100.461L203.793 101.066C205.651 99.7057 207.442 98.2386 209.217 96.7399C214.529 92.2587 219.621 87.544 225.356 83.5576C237.402 77.0674 248.554 69.1463 258.552 59.9793L258.741 59.7664C259.367 59.04 258.445 58.0245 257.611 58.18C253.264 59.3077 248.988 60.6735 244.803 62.2709C240.991 63.356 237.24 64.627 233.561 66.0773C229.316 67.7515 225.445 70.1979 222.161 73.2823C224.422 68.7792 225.589 63.8393 225.576 58.8374C225.405 54.3504 224.983 49.8757 224.312 45.4325C223.993 43.0887 223.643 40.7461 223.198 38.4217C222.976 37.2604 222.753 36.094 222.453 34.9488C222.147 33.7766 221.513 32.745 221.235 31.5689C221.19 31.3824 221.097 31.2102 220.963 31.0689C220.829 30.9276 220.659 30.8225 220.471 30.7625C220.282 30.7025 220.081 30.6908 219.887 30.7276C219.692 30.765 219.51 30.8496 219.36 30.9741C216.607 32.6134 213.973 34.4321 211.478 36.4165C209.267 38.3655 207.201 40.4616 205.295 42.6893C201.473 47.1647 198.189 52.0421 195.504 57.2284C194.925 46.4106 192.511 35.7572 188.357 25.6909C188.328 25.5703 188.272 25.4574 188.191 25.36C188.112 25.2632 188.01 25.1845 187.895 25.1297C187.779 25.0755 187.653 25.0464 187.524 25.0445C187.396 25.0432 187.268 25.0697 187.151 25.1213C183.699 26.4522 180.037 27.3019 176.554 28.578C173.089 29.8509 169.695 31.2973 166.386 32.9108C160.221 35.8198 154.454 39.4526 149.215 43.7267L148.757 44.1177C148.871 42.7887 148.769 41.4506 148.453 40.1526C147.059 35.174 144.878 30.4321 141.986 26.0929C139.264 21.9807 136.176 18.1046 132.757 14.5086C128.875 11.0377 125.9 6.73064 124.077 1.93976C124.053 1.83525 123.987 1.74429 123.894 1.68622C123.801 1.62816 123.688 1.60816 123.579 1.62945C123.471 1.65074 123.375 1.71268 123.314 1.80171C123.252 1.89009 123.228 1.99848 123.249 2.10364C123.866 6.0326 125.298 9.8022 127.462 13.1854C129.833 16.8627 132.752 20.1768 135.325 23.7206C138.131 27.5935 140.514 31.7353 142.436 36.0804C143.624 38.0307 144.342 40.2133 144.536 42.4668C144.73 44.7203 144.397 46.9873 143.559 49.0995C136.622 55.8555 132.613 64.9005 132.346 74.3997C127.589 75.9758 123.362 78.7609 120.111 82.4596C115.844 88.3807 114.126 95.6651 115.318 102.782C115.77 106.736 116.658 110.632 117.967 114.405C118.716 116.615 119.942 118.647 121.562 120.37C116.672 119.256 111.724 118.388 106.739 117.772C100.673 113.071 95.9309 106.975 92.9489 100.047C89.9675 93.1181 88.8418 85.5782 89.6756 78.1209C89.1432 70.3333 91.7535 62.6483 96.9615 56.6697C99.7427 54.0536 103.223 52.2337 107.015 51.4111C110.807 50.5892 114.761 50.7976 118.437 52.013C119.097 52.2143 119.352 51.3176 118.757 51.0531C115.913 49.8744 112.844 49.2834 109.748 49.3189C106.652 49.3544 103.599 50.015 100.785 51.2589C100.88 50.4105 100.858 49.5537 100.732 48.7086C100.7 45.1996 100.962 41.6939 101.517 38.2262C102.361 33.7998 103.916 29.527 106.127 25.5619C110.798 17.3234 117.547 10.3415 122.449 2.21718C123.052 1.22301 121.655 -0.10923 120.758 0.831398C117.161 4.69133 113.782 8.73447 110.636 12.9434C107.423 16.8685 104.61 21.0839 102.238 25.5296C99.8712 30.3076 98.4703 35.4759 98.1087 40.7584C96.2925 37.0778 93.8985 33.6889 91.0102 30.7108C87.7282 27.3999 84.1589 24.3652 80.3398 21.64C76.0794 18.4517 71.7995 15.3053 67.2947 12.4428C66.8882 12.1847 66.3686 12.7409 66.7288 13.0834C73.3344 19.3782 80.9083 24.6864 87.2005 31.2915C90.2408 34.3701 92.7909 37.8655 94.7677 41.6642C95.7139 43.5609 96.4479 45.5493 96.9562 47.5963C97.1705 49.3163 97.51 51.0189 97.9721 52.693C93.3112 55.6072 89.9046 60.0497 88.3818 65.1973C86.5777 71.8069 86.0721 78.6829 86.8911 85.4711C87.2166 92.4665 88.9892 99.3283 92.1058 105.655C88.7903 102.651 85.7942 99.336 83.1624 95.7593C79.4438 90.6427 76.1216 85.2692 72.3748 80.1712L71.6582 79.2383C68.6648 72.0772 66.8855 64.4986 66.3893 56.7929C65.0339 46.2144 64.5672 35.5475 64.9937 24.8968C65.1277 26.9509 65.3607 28.9954 65.6801 31.0418C66.8079 37.6533 68.7198 44.1183 71.377 50.3098C72.7973 53.5382 73.9398 56.8736 74.7923 60.2819C75.4298 63.7006 75.7753 67.1637 75.8262 70.6366C76.0017 77.0893 77.9317 83.3847 81.422 88.8943C81.493 89.0311 81.6175 89.1356 81.7682 89.184C81.9188 89.2323 82.0836 89.2207 82.2256 89.1523C82.3675 89.084 82.476 88.964 82.5262 88.8188C82.5765 88.6736 82.5644 88.5149 82.4934 88.3782C79.9052 81.9783 78.6629 75.1468 78.8391 68.2805C78.9455 65.2392 78.7172 62.1954 78.158 59.2006C77.4033 56.1659 76.3888 53.1962 75.1251 50.3227C72.4471 44.1648 70.3323 37.7939 68.8048 31.2818C68.0983 27.9915 67.5994 24.6452 67.1862 21.3078C66.7804 18.0401 66.9384 14.5879 66.2487 11.3777L65.8583 11.357L65.4029 13.0841L65.1183 13.375C60.9068 28.0154 60.1896 43.3835 63.0196 58.329C63.4662 63.027 64.2732 67.6869 65.433 72.2707C57.618 65.0115 48.4229 59.2723 38.3518 55.3678C34.5789 53.7898 30.6183 52.6679 26.5597 52.0259C24.4287 51.6814 22.2661 51.553 20.1074 51.644C17.84 52.1034 15.537 52.3821 13.2219 52.4763C13.1027 52.4711 12.9839 52.4917 12.8743 52.5369C12.7646 52.5827 12.6671 52.6511 12.589 52.7382C12.511 52.8253 12.4545 52.9279 12.4238 53.0395C12.3931 53.1504 12.3889 53.2666 12.4117 53.3795C14.117 57.3026 16.6509 60.8419 19.8523 63.7709L19.9983 63.9289C14.9895 62.1877 9.51756 62.1245 4.46674 63.7489C3.20282 64.0973 2.06586 64.7812 1.18539 65.7218L0.951002 65.9315L0.990514 65.996C0.762761 66.3483 0.612287 66.7418 0.548535 67.1521C0.0918235 70.0979 2.9687 73.0791 4.54643 75.3313C12.9454 87.5066 22.6845 98.7728 33.5945 108.934C36.8176 112.231 40.8289 114.719 45.2781 116.181C42.4568 116.33 39.6509 116.682 36.8839 117.232C30.8897 118.509 25.3025 121.159 20.5963 124.957C15.8038 129.123 11.3447 133.631 7.25724 138.444L7.53917 138.746C11.3946 134.888 15.5537 131.322 19.9795 128.081C24.5973 124.45 29.9502 121.787 35.6966 120.261C41.6191 118.949 47.7278 118.6 53.7702 119.229C57.379 119.538 60.8974 120.485 64.15 122.021C66.5065 125.688 69.2622 129.102 72.3708 132.205C73.8179 133.664 75.3521 135.041 76.966 136.327C66.907 134.931 56.6464 135.957 47.099 139.311C40.3474 141.433 33.4297 143.031 26.413 144.089C19.4493 145.204 12.303 144.512 5.70897 142.084L5.51477 142.481C8.3946 144.307 11.56 145.676 14.8901 146.536C17.1623 147.574 19.4311 148.616 21.7736 149.508C25.5764 150.956 29.4343 152.262 33.3474 153.423C40.8905 155.625 48.5769 157.342 56.3564 158.563C71.0609 162.239 86.6494 160.677 100.254 154.164C106.446 150.575 111.982 146.053 117.872 142.035C119.656 141.053 121.283 139.828 122.704 138.399C122.828 138.269 122.897 138.099 122.898 137.923C122.899 137.746 122.832 137.576 122.709 137.445C122.588 137.313 122.419 137.231 122.237 137.213C122.055 137.195 121.872 137.242 121.725 137.347C115.927 141.065 109.076 142.963 102.114 142.781C95.1514 142.598 88.4179 140.344 82.8383 136.328C77.1642 132.489 72.2402 127.712 68.2959 122.218C65.8449 119.127 63.8874 115.7 62.4872 112.051C62.0573 110.82 61.8008 109.538 61.7231 108.24C62.2407 108.925 62.8535 109.538 63.5439 110.063C66.6224 112.124 70.0323 113.682 73.6371 114.674C77.5078 115.938 81.4675 116.936 85.4848 117.661C93.3273 119.117 101.289 119.848 109.181 120.989C113.826 121.619 118.428 122.516 122.961 123.676C126.711 124.67 131.675 126.403 132.337 130.339C131.863 134.217 132.691 138.139 134.698 141.531C136.706 144.922 139.788 147.606 143.493 149.188L143.694 148.775C140.233 146.267 137.782 142.68 136.757 138.626C135.669 136.641 135.204 134.393 135.42 132.158C135.635 129.923 136.522 127.796 137.971 126.038C141.826 123.372 146.292 121.647 150.991 121.007C155.688 120.368 160.477 120.834 164.947 122.367C174.404 124.593 183.165 128.874 192.314 131.984C200.322 134.875 208.642 136.886 217.118 137.977L215.751 138.655C212.521 140.224 209.42 142.029 206.477 144.055C200.534 148.431 193.863 151.804 186.748 154.029C180.155 155.819 173.295 156.514 166.461 156.087C162.965 155.883 159.491 155.409 156.074 154.667C152.678 153.938 149.511 152.401 146.144 151.665L145.854 152.095C148.533 153.999 151.541 155.43 154.74 156.321C157.886 157.419 161.139 158.212 164.45 158.685C171.509 159.661 178.697 159.297 185.611 157.617L187.911 157.007C201.573 160.049 215.705 160.61 229.581 158.661C242.394 157.053 254.099 150.827 262.338 141.237C262.486 141.012 262.535 140.739 262.475 140.479C262.416 140.219 262.252 139.991 262.02 139.847ZM84.333 141.173C90.5682 144.567 97.6968 146.135 104.843 145.68C105.909 145.605 106.982 145.478 108.051 145.308C106.163 146.534 104.294 147.805 102.38 149.036C96.3635 153.089 89.4305 155.701 82.1566 156.657C74.7554 157.339 67.2927 157.052 59.9713 155.805C52.0304 154.669 44.1765 153.036 36.3756 151.225C32.1145 150.236 27.8762 149.154 23.66 147.982L21.6316 147.431C22.1258 147.44 22.6227 147.442 23.1249 147.427C30.0726 147.004 36.9334 145.71 43.5337 143.578C50.2558 141.359 57.166 139.706 64.1848 138.639C71.0154 137.857 77.9404 138.728 84.333 141.173ZM1.75058 67.2282L2.85017 68.8889C2.32857 68.4463 1.9474 67.8708 1.75058 67.2282ZM82.3709 114.167C78.9107 113.447 75.5061 112.496 72.1826 111.322C69.218 110.256 64.6917 108.935 63.2827 105.894C62.9988 105.435 62.8455 104.911 62.8361 104.377C62.8274 103.842 62.9646 103.315 63.2332 102.847C63.5011 102.379 63.8921 101.987 64.3669 101.71C64.8417 101.433 65.3835 101.281 65.938 101.268C68.1338 101.21 70.3042 101.73 72.2161 102.771C75.7151 104.584 78.8926 106.922 81.6309 109.695L81.6979 109.635C77.5205 104.964 72.7585 98.7741 65.5623 98.9476C64.3629 98.9302 63.195 99.3173 62.2602 100.041C61.3253 100.764 60.6818 101.78 60.4407 102.912C58.8147 107.41 59.1014 112.346 61.2396 116.641L61.991 118.212C60.1762 117.503 58.2824 116.997 56.347 116.705C53.951 116.332 51.5301 116.131 49.1033 116.103C42.6932 113.971 37.0988 110.027 33.0494 104.786C27.7483 99.3031 22.6533 93.6387 17.7643 87.793C14.0811 83.3873 10.7174 78.7609 7.22375 74.2249C8.68624 75.732 10.247 77.1474 11.8967 78.4629C16.849 82.1918 22.0514 85.6021 27.4697 88.6717C32.8518 91.9375 38.4181 94.9813 43.5417 98.6218C46.0134 100.352 48.3492 102.256 50.5296 104.318C52.1442 106.398 53.9402 108.34 55.899 110.124C55.972 110.168 56.0557 110.193 56.1421 110.196C56.2285 110.2 56.3142 110.182 56.3912 110.144C56.4676 110.106 56.5332 110.05 56.5807 109.98C56.6283 109.911 56.6557 109.831 56.6618 109.748C56.2553 107.455 55.1463 105.333 53.4775 103.652C51.7571 101.494 49.7756 99.5425 47.5744 97.8373C42.5934 94.1658 37.3647 90.8168 31.923 87.8124C20.613 82.5421 10.4014 75.3197 1.79411 66.5031C1.97619 66.0328 2.28805 65.6192 2.69615 65.307C3.31987 64.9096 4.04392 64.6838 4.79086 64.6528C6.86046 64.4664 8.9456 64.5154 11.0033 64.798C13.1096 65.0199 15.1928 65.4109 17.2312 65.9676C18.8783 66.5495 20.566 67.0186 22.2818 67.3715L22.9615 67.1586C25.4429 69.854 27.9303 72.5443 30.4236 75.2294C33.8597 78.9209 37.2428 82.6654 40.8001 86.2498C44.5864 90.0659 48.603 93.6323 52.4583 97.3735L52.7998 97.078C49.5854 93.1852 46.5599 89.1646 43.2906 85.3098C40.0313 81.4693 36.5758 77.788 33.1726 74.0662L32.8793 73.7481C35.8988 75.6978 39.0402 77.4616 42.1836 79.0796C53.8539 83.7718 64.6201 90.3259 74.0289 98.4664C74.5867 99.0586 75.4465 98.2728 74.9717 97.6509C67.059 88.6007 57.0709 81.4473 45.7958 76.7545C40.2114 74.0894 34.8648 70.9849 29.8102 67.4727C24.248 63.3941 20.2628 57.8658 15.1412 53.3762C16.759 53.2124 18.3914 53.2375 20.003 53.4511C22.0625 53.5801 24.1098 53.8498 26.1297 54.2582C29.7629 55.0562 33.3045 56.1994 36.7031 57.6723C43.7466 60.7426 50.4413 64.5076 56.6792 68.9076C61.7539 72.6152 66.1536 77.1094 69.6988 82.2073C70.1555 82.9099 70.6464 83.5879 71.1721 84.2428C74.2458 88.5569 77.1394 93.0323 80.4255 97.2593C84.045 102.562 88.9925 106.902 94.8112 109.878C97.0345 112.873 99.8659 115.401 103.135 117.309C96.1901 116.427 89.2182 115.632 82.3709 114.167ZM236.501 67.9166C240.258 66.6857 244.116 65.7683 247.901 64.6193L250.867 63.7277C242.333 70.0617 232.313 74.5455 223.53 80.5261C218.17 84.4763 213.138 88.822 208.478 93.5239C211.589 89.9755 214.436 86.2214 217 82.288C218.072 80.6551 219.108 78.9919 220.073 77.2971C224.62 72.8604 230.278 69.6295 236.501 67.9166ZM219.135 33.7772C219.123 34.3817 219.151 34.9869 219.216 35.5882L219.76 39.1004C220.083 41.1468 220.408 43.1925 220.685 45.2454C221.249 49.4124 221.75 53.6188 221.898 57.8207C221.707 65.9521 218.918 73.8294 213.908 80.3764C209.674 86.7718 204.675 92.6665 199.014 97.9393C194.431 102.534 188.793 106.029 182.553 108.144C186.344 101.861 190.569 95.8303 195.201 90.0936C199.736 85.5595 203.774 80.5893 207.255 75.2597C210.615 68.9785 213.052 62.2774 214.495 55.3491C215.299 52.1021 215.968 48.8408 216.593 45.5577C217.555 41.8319 218.212 38.0391 218.559 34.2147L219.135 33.7772ZM197.547 60.1445C200.175 54.9472 203.361 50.0298 207.052 45.4719C208.966 43.139 211.044 40.9352 213.272 38.8772C214.549 37.6965 215.884 36.4256 217.276 35.2475C216.096 38.2855 215.489 41.699 214.646 44.7822C213.682 48.3047 212.817 51.8511 211.847 55.3717C210.087 62.2167 207.215 68.7508 203.336 74.732C197.979 82.7015 189.065 89.3349 184.435 97.9115L184.44 97.6173L184.38 95.3542C185.959 89.9904 187.959 84.6815 189.75 79.4074C191.872 72.8159 194.477 66.3805 197.547 60.1445ZM161.637 118.471C158.086 117.9 154.477 117.743 150.887 118.005C147.545 118.015 144.251 118.777 141.269 120.23C138.287 121.683 135.698 123.788 133.709 126.376C131.424 123.865 128.4 122.085 125.038 121.271L122.864 120.686C121.532 118.265 120.636 115.644 120.212 112.935C119.288 109.244 118.673 105.488 118.37 101.702C117.915 98.3031 118.233 94.849 119.301 91.5794C120.369 88.3104 122.162 85.3034 124.555 82.7673C129.931 78.8145 136.134 76.0345 142.736 74.6191C150.417 72.6449 157.896 70.0017 165.08 66.7224C165.292 66.6128 165.457 66.4334 165.544 66.2173C165.632 66.0012 165.637 65.7618 165.558 65.5425C165.48 65.3231 165.322 65.138 165.115 65.0199C164.908 64.9018 164.663 64.8593 164.426 64.8986C159.82 65.6541 155.294 66.8147 150.908 68.3663C146.517 69.7566 142.123 71.1366 137.737 72.5385C136.382 72.9714 135.021 73.421 133.675 73.9055C134.954 68.4714 137.124 63.2683 140.103 58.4923C143.355 53.4956 147.424 49.0383 152.152 45.2919C157.418 41.2061 163.161 37.7262 169.264 34.923C172.216 33.5179 175.209 32.196 178.201 30.8721C181.073 29.6012 183.914 28.1148 186.854 26.9761C190.756 39.3042 192.431 52.1866 191.806 65.0612C190.17 68.9489 188.747 72.9165 187.544 76.9487C186.05 81.9351 185.133 87.0066 184.092 92.0613C183.566 87.7104 182.326 83.4673 180.417 79.4919C179.072 76.7184 177.312 74.1507 175.193 71.8694C173.089 69.6443 170.524 67.8695 167.664 66.6579L167.405 66.9515C175.369 74.6242 180.082 84.8795 180.623 95.718C181.279 101.342 179.629 106.991 176.024 111.46L174.506 113.003L171.047 114.736C168.005 116.192 164.861 117.44 161.637 118.471ZM205.544 132.327L202.294 131.475L202.769 131.399C206.317 130.866 209.813 130.055 213.224 128.974C215.017 128.381 216.784 127.732 218.526 127.024L218.747 127.257C220.435 128.437 222.84 129.454 223.826 131.311C224.095 131.763 224.246 132.27 224.265 132.791C224.284 133.312 224.17 133.829 223.935 134.297C223.045 135.636 221.105 135.22 219.733 135.015C214.966 134.301 210.225 133.468 205.544 132.327ZM228.091 155.261C216.017 156.676 203.821 156.848 191.708 155.774C196.457 154.007 200.962 151.686 205.124 148.862C207.304 147.404 209.444 145.889 211.62 144.429C220.764 145.978 230.036 146.716 239.32 146.635C243.626 146.827 247.942 146.578 252.195 145.891L253.601 145.521C245.945 150.536 237.234 153.862 228.091 155.261ZM254.542 142.567C253.012 142.893 251.458 143.104 249.894 143.198C245.517 143.585 241.092 143.569 236.701 143.585C228.965 143.612 221.236 143.431 213.507 143.194L215.52 141.933C217.231 140.9 218.984 139.922 220.781 139.035C222.834 138.049 224.703 136.744 226.314 135.173C226.587 134.473 226.698 133.724 226.639 132.979C226.416 131.377 225.693 129.878 224.567 128.68C223.44 127.482 221.963 126.641 220.331 126.27L223.242 124.947C229.483 125.91 235.517 127.858 241.099 130.714C244.255 132.226 247.356 133.835 250.401 135.541C253.156 137.082 256.443 138.458 259.146 140.256C257.703 141.184 256.158 141.958 254.542 142.567Z" fill="#717D6B"/>
<path d="M33.1354 178.025L39.1897 193.632C39.4378 194.26 39.719 194.682 40.0333 194.897C40.3476 195.096 40.6371 195.203 40.9017 195.22V195.716C40.5709 195.683 40.1656 195.666 39.6859 195.666C39.2062 195.65 38.7265 195.642 38.2468 195.642C37.6017 195.642 36.9979 195.65 36.4355 195.666C35.8731 195.666 35.4182 195.683 35.0708 195.716V195.22C35.9144 195.187 36.452 195.046 36.6836 194.798C36.9152 194.533 36.8656 193.979 36.5347 193.135L31.9196 180.804L32.3166 180.481L27.9992 191.696C27.7346 192.358 27.5774 192.92 27.5278 193.384C27.4782 193.83 27.5195 194.186 27.6519 194.451C27.8007 194.715 28.0406 194.905 28.3714 195.021C28.7188 195.137 29.1489 195.203 29.6617 195.22V195.716C29.1985 195.683 28.7105 195.666 28.1977 195.666C27.7015 195.65 27.2383 195.642 26.8082 195.642C26.3947 195.642 26.039 195.65 25.7413 195.666C25.4601 195.666 25.1954 195.683 24.9473 195.716V195.22C25.2781 195.137 25.6172 194.947 25.9646 194.649C26.312 194.335 26.6263 193.805 26.9075 193.061L32.7384 178.025C32.8046 178.025 32.8708 178.025 32.9369 178.025C33.0031 178.025 33.0693 178.025 33.1354 178.025ZM36.1626 188.57V189.066H28.7684L29.0165 188.57H36.1626Z" fill="#57635C"/>
<path d="M55.525 178.149V178.645C55.0123 178.711 54.516 178.877 54.0363 179.141C53.5566 179.406 53.0769 179.844 52.5972 180.456L47.8083 186.585L48.3542 185.369L54.3092 193.706C54.5904 194.12 54.8965 194.442 55.2273 194.674C55.5581 194.905 55.9799 195.087 56.4927 195.22V195.716C56.0957 195.683 55.5995 195.666 55.004 195.666C54.425 195.65 53.9288 195.642 53.5152 195.642C53.234 195.642 52.8866 195.65 52.4731 195.666C52.0761 195.666 51.5716 195.683 50.9595 195.716V195.22C51.522 195.187 51.8776 195.087 52.0265 194.922C52.1754 194.757 52.1175 194.484 51.8528 194.103L48.2302 188.644C47.8993 188.132 47.6016 187.751 47.3369 187.503C47.0888 187.238 46.8241 187.065 46.5429 186.982C46.2782 186.899 45.9391 186.85 45.5256 186.833V186.337C46.2204 186.32 46.7993 186.188 47.2625 185.94C47.7422 185.675 48.1392 185.344 48.4535 184.947L50.8355 181.92C51.3814 181.225 51.7535 180.638 51.952 180.158C52.1505 179.679 52.1423 179.315 51.9272 179.067C51.7122 178.802 51.2573 178.661 50.5625 178.645V178.149C50.8768 178.165 51.1994 178.182 51.5302 178.198C51.8611 178.198 52.1836 178.207 52.4979 178.223C52.8288 178.223 53.1348 178.223 53.416 178.223C53.8461 178.223 54.2431 178.215 54.607 178.198C54.9709 178.182 55.2769 178.165 55.525 178.149ZM47.6347 178.149V178.645C47.0722 178.661 46.6422 178.728 46.3444 178.843C46.0632 178.943 45.873 179.141 45.7737 179.439C45.6745 179.72 45.6248 180.167 45.6248 180.779V193.086C45.6248 193.681 45.6745 194.128 45.7737 194.426C45.873 194.723 46.0632 194.922 46.3444 195.021C46.6422 195.12 47.0722 195.187 47.6347 195.22V195.716C47.2542 195.683 46.7745 195.666 46.1955 195.666C45.6331 195.65 45.0624 195.642 44.4835 195.642C43.8383 195.642 43.2346 195.65 42.6722 195.666C42.1097 195.666 41.6548 195.683 41.3075 195.716V195.22C41.8699 195.187 42.2917 195.12 42.5729 195.021C42.8707 194.922 43.0692 194.723 43.1684 194.426C43.2677 194.128 43.3173 193.681 43.3173 193.086V180.779C43.3173 180.167 43.2677 179.72 43.1684 179.439C43.0692 179.141 42.8707 178.943 42.5729 178.843C42.2917 178.728 41.8699 178.661 41.3075 178.645V178.149C41.6548 178.165 42.1097 178.182 42.6722 178.198C43.2346 178.215 43.8383 178.223 44.4835 178.223C45.0624 178.223 45.6331 178.215 46.1955 178.198C46.7745 178.182 47.2542 178.165 47.6347 178.149Z" fill="#57635C"/>
<path d="M62.8763 177.876C63.7034 177.876 64.332 177.975 64.7621 178.173C65.1922 178.355 65.5726 178.562 65.9035 178.794C66.102 178.91 66.2591 179.001 66.3749 179.067C66.5072 179.116 66.6313 179.141 66.7471 179.141C66.9125 179.141 67.0283 179.05 67.0945 178.868C67.1772 178.686 67.2433 178.413 67.293 178.049H67.8637C67.8471 178.331 67.8223 178.67 67.7892 179.067C67.7727 179.447 67.7561 179.96 67.7396 180.605C67.7396 181.234 67.7396 182.069 67.7396 183.111H67.1689C67.1193 182.317 66.9456 181.556 66.6478 180.828C66.3501 180.101 65.9117 179.505 65.3328 179.042C64.7704 178.579 64.026 178.347 63.0997 178.347C62.2229 178.347 61.4951 178.612 60.9161 179.141C60.3537 179.671 60.0725 180.365 60.0725 181.225C60.0725 181.97 60.2628 182.598 60.6432 183.111C61.0237 183.607 61.5282 184.062 62.1568 184.476C62.8019 184.873 63.4967 185.303 64.241 185.766C65.1012 186.295 65.8621 186.825 66.5238 187.354C67.202 187.867 67.7313 188.438 68.1118 189.066C68.5088 189.695 68.7073 190.456 68.7073 191.349C68.7073 192.408 68.4674 193.284 67.9877 193.979C67.508 194.674 66.8712 195.195 66.0772 195.542C65.2832 195.89 64.4064 196.063 63.447 196.063C62.5703 196.063 61.8756 195.964 61.3628 195.766C60.85 195.567 60.4116 195.36 60.0477 195.145C59.6838 194.914 59.4026 194.798 59.2041 194.798C59.0387 194.798 58.9146 194.889 58.8319 195.071C58.7657 195.253 58.7078 195.526 58.6582 195.89H58.0875C58.1206 195.542 58.1371 195.137 58.1371 194.674C58.1537 194.194 58.162 193.574 58.162 192.813C58.1785 192.052 58.1868 191.093 58.1868 189.935H58.7575C58.8236 190.927 59.0056 191.853 59.3033 192.714C59.6176 193.574 60.0891 194.269 60.7176 194.798C61.3628 195.311 62.2147 195.567 63.2733 195.567C63.8192 195.567 64.332 195.46 64.8117 195.245C65.308 195.013 65.7132 194.657 66.0275 194.178C66.3418 193.681 66.499 193.044 66.499 192.267C66.499 191.589 66.3335 191.002 66.0027 190.505C65.6884 189.993 65.2418 189.521 64.6628 189.091C64.0839 188.644 63.4057 188.189 62.6282 187.726C61.8508 187.247 61.1229 186.759 60.4447 186.262C59.7665 185.766 59.2206 185.195 58.8071 184.55C58.4101 183.889 58.2116 183.095 58.2116 182.168C58.2116 181.192 58.4266 180.39 58.8567 179.761C59.3033 179.116 59.8823 178.645 60.5936 178.347C61.3049 178.033 62.0658 177.876 62.8763 177.876Z" fill="#57635C"/>
<path d="M77.8174 178.025L83.8716 193.632C84.1197 194.26 84.4009 194.682 84.7152 194.897C85.0295 195.096 85.319 195.203 85.5837 195.22V195.716C85.2528 195.683 84.8476 195.666 84.3679 195.666C83.8882 195.65 83.4084 195.642 82.9287 195.642C82.2836 195.642 81.6798 195.65 81.1174 195.666C80.555 195.666 80.1001 195.683 79.7527 195.716V195.22C80.5964 195.187 81.134 195.046 81.3655 194.798C81.5971 194.533 81.5475 193.979 81.2167 193.135L76.6015 180.804L76.9985 180.481L72.6812 191.696C72.4165 192.358 72.2593 192.92 72.2097 193.384C72.1601 193.83 72.2015 194.186 72.3338 194.451C72.4827 194.715 72.7225 194.905 73.0534 195.021C73.4007 195.137 73.8308 195.203 74.3436 195.22V195.716C73.8804 195.683 73.3925 195.666 72.8797 195.666C72.3834 195.65 71.9202 195.642 71.4902 195.642C71.0766 195.642 70.721 195.65 70.4232 195.666C70.142 195.666 69.8773 195.683 69.6292 195.716V195.22C69.9601 195.137 70.2992 194.947 70.6465 194.649C70.9939 194.335 71.3082 193.805 71.5894 193.061L77.4203 178.025C77.4865 178.025 77.5527 178.025 77.6189 178.025C77.685 178.025 77.7512 178.025 77.8174 178.025ZM80.8445 188.57V189.066H73.4503L73.6985 188.57H80.8445Z" fill="#57635C"/>
<path d="M101.572 178.149V178.645C101.009 178.661 100.579 178.744 100.281 178.893C100 179.042 99.81 179.282 99.7107 179.613C99.6115 179.943 99.5619 180.415 99.5619 181.027V195.84C99.4626 195.84 99.3633 195.84 99.2641 195.84C99.1814 195.84 99.0904 195.84 98.9912 195.84L88.5699 179.737V192.838C88.5699 193.433 88.6195 193.905 88.7188 194.252C88.8346 194.583 89.0496 194.823 89.3639 194.972C89.6947 195.104 90.1827 195.187 90.8278 195.22V195.716C90.5301 195.683 90.1414 195.666 89.6617 195.666C89.1819 195.65 88.727 195.642 88.297 195.642C87.8834 195.642 87.4616 195.65 87.0315 195.666C86.618 195.666 86.2706 195.683 85.9894 195.716V195.22C86.5518 195.187 86.9736 195.104 87.2548 194.972C87.5526 194.823 87.7511 194.583 87.8503 194.252C87.9496 193.905 87.9992 193.433 87.9992 192.838V180.779C87.9992 180.167 87.9496 179.72 87.8503 179.439C87.7511 179.141 87.5526 178.943 87.2548 178.843C86.9736 178.728 86.5518 178.661 85.9894 178.645V178.149C86.2706 178.165 86.618 178.182 87.0315 178.198C87.4616 178.215 87.8834 178.223 88.297 178.223C88.6609 178.223 89.0083 178.215 89.3391 178.198C89.6699 178.182 89.9677 178.165 90.2323 178.149L98.9912 191.647V181.027C98.9912 180.415 98.9333 179.943 98.8175 179.613C98.7182 179.282 98.5032 179.042 98.1723 178.893C97.8581 178.744 97.3783 178.661 96.7332 178.645V178.149C97.031 178.165 97.4197 178.182 97.8994 178.198C98.3957 178.215 98.8506 178.223 99.2641 178.223C99.6942 178.223 100.116 178.215 100.53 178.198C100.96 178.182 101.307 178.165 101.572 178.149Z" fill="#57635C"/>
<path d="M110.335 178.025L116.39 193.632C116.638 194.26 116.919 194.682 117.233 194.897C117.547 195.096 117.837 195.203 118.102 195.22V195.716C117.771 195.683 117.366 195.666 116.886 195.666C116.406 195.65 115.926 195.642 115.447 195.642C114.802 195.642 114.198 195.65 113.635 195.666C113.073 195.666 112.618 195.683 112.271 195.716V195.22C113.114 195.187 113.652 195.046 113.884 194.798C114.115 194.533 114.065 193.979 113.735 193.135L109.12 180.804L109.517 180.481L105.199 191.696C104.934 192.358 104.777 192.92 104.728 193.384C104.678 193.83 104.719 194.186 104.852 194.451C105.001 194.715 105.24 194.905 105.571 195.021C105.919 195.137 106.349 195.203 106.862 195.22V195.716C106.398 195.683 105.91 195.666 105.398 195.666C104.901 195.65 104.438 195.642 104.008 195.642C103.595 195.642 103.239 195.65 102.941 195.666C102.66 195.666 102.395 195.683 102.147 195.716V195.22C102.478 195.137 102.817 194.947 103.165 194.649C103.512 194.335 103.826 193.805 104.107 193.061L109.938 178.025C110.004 178.025 110.071 178.025 110.137 178.025C110.203 178.025 110.269 178.025 110.335 178.025ZM113.362 188.57V189.066H105.968L106.216 188.57H113.362Z" fill="#57635C"/>
<path d="M137.895 178.149V178.645C137.58 178.711 137.266 178.918 136.952 179.265C136.638 179.596 136.29 180.125 135.91 180.853L130.898 190.778H130.476L124.67 180.059C124.339 179.447 124.058 179.067 123.826 178.918C123.611 178.752 123.412 178.67 123.23 178.67V178.149C123.561 178.165 123.9 178.182 124.248 178.198C124.612 178.215 125 178.223 125.414 178.223C125.96 178.223 126.539 178.223 127.151 178.223C127.779 178.207 128.358 178.182 128.888 178.149V178.67C128.474 178.67 128.11 178.719 127.796 178.819C127.482 178.918 127.275 179.1 127.176 179.364C127.076 179.629 127.151 180.001 127.399 180.481L131.592 188.52L131.394 188.669L134.694 182.094C135.157 181.184 135.38 180.481 135.364 179.985C135.364 179.489 135.174 179.149 134.793 178.967C134.413 178.769 133.875 178.661 133.18 178.645V178.149C133.66 178.165 134.148 178.182 134.644 178.198C135.14 178.215 135.604 178.223 136.034 178.223C136.464 178.223 136.819 178.215 137.101 178.198C137.382 178.182 137.647 178.165 137.895 178.149ZM132.014 188.173V193.086C132.014 193.681 132.064 194.128 132.163 194.426C132.262 194.723 132.452 194.922 132.734 195.021C133.031 195.12 133.462 195.187 134.024 195.22V195.716C133.643 195.683 133.164 195.666 132.585 195.666C132.022 195.65 131.452 195.642 130.873 195.642C130.228 195.642 129.624 195.65 129.061 195.666C128.499 195.666 128.044 195.683 127.697 195.716V195.22C128.259 195.187 128.681 195.12 128.962 195.021C129.26 194.922 129.458 194.723 129.558 194.426C129.657 194.128 129.707 193.681 129.707 193.086V187.999L131.046 189.538L132.014 188.173Z" fill="#57635C"/>
<path d="M154.217 178.149V178.645C153.654 178.661 153.224 178.744 152.927 178.893C152.645 179.042 152.455 179.282 152.356 179.613C152.257 179.943 152.207 180.415 152.207 181.027V188.495C152.207 189.653 152.133 190.662 151.984 191.523C151.835 192.383 151.57 193.127 151.19 193.756C150.776 194.451 150.172 195.013 149.378 195.443C148.584 195.857 147.675 196.063 146.649 196.063C145.855 196.063 145.094 195.964 144.366 195.766C143.655 195.584 143.026 195.236 142.481 194.723C142.001 194.26 141.62 193.772 141.339 193.26C141.074 192.747 140.893 192.118 140.793 191.374C140.694 190.629 140.644 189.695 140.644 188.57V180.779C140.644 180.167 140.595 179.72 140.496 179.439C140.396 179.141 140.198 178.943 139.9 178.843C139.619 178.728 139.197 178.661 138.635 178.645V178.149C138.982 178.165 139.437 178.182 139.999 178.198C140.562 178.215 141.165 178.223 141.811 178.223C142.39 178.223 142.96 178.215 143.523 178.198C144.102 178.182 144.581 178.165 144.962 178.149V178.645C144.399 178.661 143.969 178.728 143.672 178.843C143.39 178.943 143.2 179.141 143.101 179.439C143.002 179.72 142.952 180.167 142.952 180.779V188.992C142.952 189.835 142.993 190.638 143.076 191.399C143.159 192.143 143.324 192.805 143.572 193.384C143.837 193.946 144.234 194.393 144.763 194.723C145.293 195.038 145.996 195.195 146.872 195.195C148.13 195.195 149.097 194.922 149.775 194.376C150.47 193.814 150.95 193.044 151.215 192.068C151.496 191.093 151.636 189.993 151.636 188.768V181.027C151.636 180.415 151.562 179.943 151.413 179.613C151.281 179.282 151.049 179.042 150.718 178.893C150.387 178.744 149.941 178.661 149.378 178.645V178.149C149.676 178.165 150.065 178.182 150.545 178.198C151.041 178.215 151.496 178.223 151.909 178.223C152.339 178.223 152.761 178.215 153.175 178.198C153.605 178.182 153.952 178.165 154.217 178.149Z" fill="#57635C"/>
<path d="M155.92 178.149C156.267 178.165 156.722 178.182 157.285 178.198C157.847 178.215 158.401 178.223 158.947 178.223C159.725 178.223 160.469 178.215 161.18 178.198C161.892 178.182 162.396 178.173 162.694 178.173C164.034 178.173 165.142 178.364 166.019 178.744C166.912 179.125 167.574 179.646 168.004 180.307C168.45 180.952 168.674 181.68 168.674 182.491C168.674 182.987 168.574 183.516 168.376 184.079C168.177 184.641 167.83 185.171 167.334 185.667C166.854 186.163 166.192 186.577 165.349 186.908C164.505 187.222 163.438 187.379 162.148 187.379H159.766V186.883H161.9C163.074 186.883 163.968 186.701 164.58 186.337C165.208 185.956 165.63 185.46 165.845 184.848C166.077 184.219 166.192 183.525 166.192 182.764C166.192 181.457 165.878 180.448 165.25 179.737C164.637 179.009 163.579 178.645 162.074 178.645C161.313 178.645 160.816 178.786 160.585 179.067C160.353 179.348 160.237 179.919 160.237 180.779V193.086C160.237 193.681 160.287 194.128 160.386 194.426C160.486 194.723 160.676 194.922 160.957 195.021C161.255 195.12 161.685 195.187 162.247 195.22V195.716C161.867 195.683 161.387 195.666 160.808 195.666C160.246 195.65 159.675 195.642 159.096 195.642C158.451 195.642 157.847 195.65 157.285 195.666C156.722 195.666 156.267 195.683 155.92 195.716V195.22C156.482 195.187 156.904 195.12 157.185 195.021C157.483 194.922 157.682 194.723 157.781 194.426C157.88 194.128 157.93 193.681 157.93 193.086V180.779C157.93 180.167 157.88 179.72 157.781 179.439C157.682 179.141 157.483 178.943 157.185 178.843C156.904 178.728 156.482 178.661 155.92 178.645V178.149ZM159.865 186.957C160.758 186.99 161.461 187.032 161.974 187.081C162.487 187.114 162.901 187.147 163.215 187.18C163.546 187.214 163.86 187.255 164.158 187.304C165.266 187.486 166.06 187.826 166.54 188.322C167.036 188.802 167.4 189.554 167.632 190.58L168.252 193.111C168.417 193.838 168.583 194.368 168.748 194.699C168.93 195.013 169.203 195.162 169.567 195.145C169.848 195.129 170.08 195.038 170.262 194.872C170.46 194.707 170.667 194.484 170.882 194.202L171.254 194.475C170.907 194.988 170.543 195.385 170.162 195.666C169.798 195.931 169.277 196.063 168.599 196.063C167.987 196.063 167.45 195.881 166.986 195.517C166.523 195.154 166.176 194.442 165.944 193.384L165.398 190.902C165.25 190.191 165.076 189.579 164.877 189.066C164.695 188.537 164.431 188.123 164.083 187.826C163.752 187.528 163.256 187.379 162.595 187.379H159.915L159.865 186.957Z" fill="#57635C"/>
<path d="M178.337 178.149V178.645C177.774 178.661 177.344 178.728 177.046 178.843C176.765 178.943 176.575 179.141 176.476 179.439C176.376 179.72 176.327 180.167 176.327 180.779V193.086C176.327 193.681 176.376 194.128 176.476 194.426C176.575 194.723 176.765 194.922 177.046 195.021C177.344 195.104 177.774 195.145 178.337 195.145H180.148C180.925 195.145 181.554 195.063 182.034 194.897C182.53 194.732 182.919 194.475 183.2 194.128C183.498 193.764 183.721 193.284 183.87 192.689C184.019 192.093 184.134 191.365 184.217 190.505H184.788C184.738 191.018 184.713 191.696 184.713 192.54C184.713 192.854 184.722 193.309 184.738 193.905C184.771 194.484 184.821 195.087 184.887 195.716C184.043 195.683 183.092 195.666 182.034 195.666C180.975 195.65 180.032 195.642 179.205 195.642C178.841 195.642 178.37 195.642 177.791 195.642C177.228 195.642 176.616 195.65 175.955 195.666C175.293 195.666 174.623 195.675 173.945 195.691C173.267 195.691 172.621 195.699 172.009 195.716V195.22C172.572 195.187 172.994 195.12 173.275 195.021C173.573 194.922 173.771 194.723 173.87 194.426C173.97 194.128 174.019 193.681 174.019 193.086V180.779C174.019 180.167 173.97 179.72 173.87 179.439C173.771 179.141 173.573 178.943 173.275 178.843C172.994 178.728 172.572 178.661 172.009 178.645V178.149C172.357 178.165 172.812 178.182 173.374 178.198C173.936 178.215 174.54 178.223 175.185 178.223C175.764 178.223 176.335 178.215 176.897 178.198C177.476 178.182 177.956 178.165 178.337 178.149Z" fill="#57635C"/>
<path d="M194.76 177.801C196.331 177.801 197.704 178.157 198.879 178.868C200.07 179.58 200.988 180.605 201.633 181.945C202.294 183.268 202.625 184.881 202.625 186.783C202.625 188.636 202.286 190.257 201.608 191.647C200.946 193.036 200.02 194.12 198.829 194.897C197.638 195.675 196.273 196.063 194.735 196.063C193.163 196.063 191.782 195.708 190.591 194.996C189.417 194.285 188.499 193.26 187.837 191.92C187.192 190.58 186.869 188.967 186.869 187.081C186.869 185.229 187.208 183.607 187.887 182.218C188.565 180.828 189.491 179.745 190.666 178.967C191.857 178.19 193.221 177.801 194.76 177.801ZM194.66 178.248C193.585 178.248 192.651 178.62 191.857 179.364C191.063 180.109 190.442 181.134 189.996 182.441C189.566 183.748 189.351 185.262 189.351 186.982C189.351 188.735 189.59 190.265 190.07 191.572C190.566 192.863 191.228 193.863 192.055 194.575C192.899 195.269 193.825 195.617 194.834 195.617C195.909 195.617 196.844 195.244 197.638 194.5C198.432 193.756 199.044 192.73 199.474 191.423C199.921 190.1 200.144 188.586 200.144 186.883C200.144 185.113 199.896 183.583 199.4 182.292C198.92 181.002 198.267 180.01 197.439 179.315C196.612 178.604 195.686 178.248 194.66 178.248Z" fill="#57635C"/>
<path d="M219.412 178.149V178.645C219.098 178.711 218.759 178.901 218.395 179.216C218.047 179.53 217.733 180.059 217.452 180.804L211.621 195.84C211.588 195.84 211.555 195.84 211.522 195.84C211.488 195.84 211.455 195.84 211.422 195.84C211.389 195.84 211.356 195.84 211.323 195.84C211.29 195.84 211.257 195.84 211.224 195.84L205.17 180.233C204.921 179.604 204.64 179.191 204.326 178.992C204.012 178.777 203.722 178.661 203.458 178.645V178.149C203.788 178.165 204.194 178.182 204.673 178.198C205.17 178.215 205.649 178.223 206.112 178.223C206.758 178.223 207.361 178.215 207.924 178.198C208.486 178.182 208.941 178.165 209.288 178.149V178.645C208.726 178.661 208.296 178.728 207.998 178.843C207.717 178.959 207.56 179.166 207.527 179.464C207.51 179.745 207.609 180.167 207.825 180.729L212.44 192.962L212.043 193.384L216.36 182.168C216.707 181.275 216.873 180.58 216.856 180.084C216.84 179.571 216.65 179.207 216.286 178.992C215.922 178.777 215.392 178.661 214.698 178.645V178.149C215.177 178.165 215.665 178.182 216.162 178.198C216.658 178.215 217.121 178.223 217.551 178.223C217.981 178.223 218.337 178.215 218.618 178.198C218.899 178.182 219.164 178.165 219.412 178.149Z" fill="#57635C"/>
<path d="M225.651 178.025L231.705 193.632C231.953 194.26 232.234 194.682 232.548 194.897C232.863 195.096 233.152 195.203 233.417 195.22V195.716C233.086 195.683 232.681 195.666 232.201 195.666C231.721 195.65 231.242 195.642 230.762 195.642C230.117 195.642 229.513 195.65 228.951 195.666C228.388 195.666 227.933 195.683 227.586 195.716V195.22C228.43 195.187 228.967 195.046 229.199 194.798C229.43 194.533 229.381 193.979 229.05 193.135L224.435 180.804L224.832 180.481L220.514 191.696C220.25 192.358 220.093 192.92 220.043 193.384C219.993 193.83 220.035 194.186 220.167 194.451C220.316 194.715 220.556 194.905 220.887 195.021C221.234 195.137 221.664 195.203 222.177 195.22V195.716C221.714 195.683 221.226 195.666 220.713 195.666C220.217 195.65 219.753 195.642 219.323 195.642C218.91 195.642 218.554 195.65 218.256 195.666C217.975 195.666 217.711 195.683 217.462 195.716V195.22C217.793 195.137 218.132 194.947 218.48 194.649C218.827 194.335 219.141 193.805 219.423 193.061L225.254 178.025C225.32 178.025 225.386 178.025 225.452 178.025C225.518 178.025 225.584 178.025 225.651 178.025ZM228.678 188.57V189.066H221.284L221.532 188.57H228.678Z" fill="#57635C"/>
<path d="M74.8803 226.634C75.0813 226.644 75.3445 226.653 75.67 226.663C75.9954 226.672 76.3161 226.677 76.6319 226.677C77.0818 226.677 77.5125 226.672 77.9241 226.663C78.3357 226.653 78.6276 226.648 78.7999 226.648C79.8049 226.648 80.5611 226.859 81.0684 227.28C81.5757 227.701 81.8293 228.242 81.8293 228.902C81.8293 229.237 81.7575 229.568 81.6139 229.893C81.4799 230.209 81.2502 230.501 80.9248 230.769C80.6089 231.027 80.183 231.238 79.647 231.401V231.429C80.4031 231.525 80.9918 231.707 81.4129 231.975C81.8437 232.233 82.1452 232.54 82.3175 232.894C82.4897 233.248 82.5759 233.621 82.5759 234.014C82.5759 234.559 82.4371 235.043 82.1595 235.464C81.8915 235.875 81.4991 236.201 80.9822 236.44C80.4653 236.679 79.848 236.799 79.1301 236.799C78.9195 236.799 78.6037 236.794 78.1825 236.785C77.7614 236.765 77.2541 236.756 76.6606 236.756C76.3256 236.756 75.9954 236.761 75.67 236.77C75.3445 236.77 75.0813 236.78 74.8803 236.799V236.512C75.2058 236.493 75.4498 236.454 75.6125 236.397C75.7848 236.34 75.8997 236.225 75.9571 236.052C76.0146 235.88 76.0433 235.622 76.0433 235.277V228.156C76.0433 227.802 76.0146 227.543 75.9571 227.381C75.8997 227.208 75.7848 227.093 75.6125 227.036C75.4498 226.969 75.2058 226.931 74.8803 226.921V226.634ZM78.441 226.921C78.0007 226.921 77.7135 227.002 77.5795 227.165C77.4455 227.328 77.3785 227.658 77.3785 228.156V235.277C77.3785 235.612 77.4072 235.866 77.4647 236.038C77.5221 236.21 77.6274 236.325 77.7805 236.383C77.9337 236.44 78.1586 236.469 78.4553 236.469C79.3933 236.469 80.0729 236.253 80.4941 235.823C80.9248 235.382 81.1402 234.76 81.1402 233.956C81.1402 233.219 80.9391 232.65 80.5371 232.248C80.1447 231.846 79.4938 231.645 78.5845 231.645H77.1057C77.1057 231.645 77.1057 231.606 77.1057 231.53C77.1057 231.444 77.1057 231.401 77.1057 231.401H78.3405C78.9052 231.401 79.3407 231.295 79.647 231.085C79.9533 230.865 80.1638 230.577 80.2787 230.223C80.3936 229.86 80.451 229.472 80.451 229.06C80.451 228.352 80.2931 227.821 79.9772 227.467C79.6709 227.103 79.1588 226.921 78.441 226.921Z" fill="#57635C"/>
<path d="M87.7619 226.562L91.2651 235.593C91.4087 235.957 91.5714 236.201 91.7533 236.325C91.9351 236.44 92.1027 236.502 92.2558 236.512V236.799C92.0644 236.78 91.8299 236.77 91.5523 236.77C91.2747 236.761 90.9971 236.756 90.7196 236.756C90.3463 236.756 89.9969 236.761 89.6715 236.77C89.346 236.77 89.0828 236.78 88.8818 236.799V236.512C89.37 236.493 89.681 236.411 89.815 236.268C89.949 236.115 89.9203 235.794 89.7289 235.306L87.0584 228.17L87.2881 227.984L84.79 234.473C84.6368 234.856 84.5459 235.181 84.5172 235.449C84.4885 235.708 84.5124 235.914 84.589 236.067C84.6751 236.22 84.8139 236.33 85.0053 236.397C85.2063 236.464 85.4552 236.502 85.7519 236.512V236.799C85.4839 236.78 85.2015 236.77 84.9048 236.77C84.6177 236.761 84.3497 236.756 84.1008 236.756C83.8615 236.756 83.6557 236.761 83.4834 236.77C83.3207 236.77 83.1676 236.78 83.024 236.799V236.512C83.2154 236.464 83.4116 236.354 83.6126 236.182C83.8137 236 83.9955 235.693 84.1582 235.263L87.5322 226.562C87.5705 226.562 87.6088 226.562 87.6471 226.562C87.6854 226.562 87.7237 226.562 87.7619 226.562ZM89.5135 232.664V232.951H85.235L85.3786 232.664H89.5135Z" fill="#57635C"/>
<path d="M106.023 226.634V226.921C105.697 226.931 105.449 226.969 105.276 227.036C105.114 227.093 105.003 227.208 104.946 227.381C104.889 227.543 104.86 227.802 104.86 228.156V235.277C104.86 235.622 104.889 235.88 104.946 236.052C105.003 236.225 105.114 236.34 105.276 236.397C105.449 236.454 105.697 236.493 106.023 236.512V236.799C105.822 236.78 105.559 236.77 105.233 236.77C104.908 236.761 104.558 236.756 104.185 236.756C103.821 236.756 103.429 236.765 103.008 236.785C102.596 236.794 102.137 236.799 101.629 236.799C101.333 236.799 101.046 236.794 100.768 236.785C100.5 236.775 100.251 236.77 100.021 236.77C99.8013 236.761 99.6003 236.756 99.4185 236.756C99.1505 236.756 98.8202 236.765 98.4278 236.785C98.0354 236.794 97.6094 236.799 97.15 236.799C96.6235 236.799 96.1593 236.794 95.7573 236.785C95.3553 236.765 94.9724 236.756 94.6087 236.756C94.2354 236.756 93.8861 236.761 93.5606 236.77C93.2352 236.77 92.972 236.78 92.771 236.799V236.512C93.0964 236.493 93.3405 236.454 93.5032 236.397C93.6755 236.34 93.7904 236.225 93.8478 236.052C93.9052 235.88 93.9339 235.622 93.9339 235.277V228.156C93.9339 227.802 93.9052 227.543 93.8478 227.381C93.7904 227.208 93.6755 227.093 93.5032 227.036C93.3405 226.969 93.0964 226.931 92.771 226.921V226.634C92.972 226.644 93.2352 226.653 93.5606 226.663C93.8861 226.672 94.2354 226.677 94.6087 226.677C94.915 226.677 95.2165 226.672 95.5132 226.663C95.8195 226.653 96.078 226.644 96.2885 226.634V226.921C96.0014 226.931 95.786 226.969 95.6425 227.036C95.4989 227.093 95.3984 227.208 95.341 227.381C95.2931 227.543 95.2692 227.802 95.2692 228.156V235.277C95.2692 235.622 95.2979 235.885 95.3553 236.067C95.4127 236.239 95.5228 236.359 95.6855 236.426C95.8578 236.483 96.1067 236.512 96.4321 236.512H97.5664C97.8918 236.512 98.1359 236.483 98.2986 236.426C98.4709 236.359 98.5857 236.239 98.6432 236.067C98.7006 235.885 98.7293 235.622 98.7293 235.277V228.156C98.7293 227.802 98.7054 227.543 98.6575 227.381C98.6097 227.208 98.5139 227.093 98.3704 227.036C98.2268 226.969 98.0067 226.931 97.7099 226.921V226.634C97.9205 226.644 98.1789 226.653 98.4852 226.663C98.7915 226.672 99.093 226.677 99.3897 226.677C99.7343 226.677 100.055 226.672 100.352 226.663C100.658 226.653 100.902 226.644 101.084 226.634V226.921C100.797 226.931 100.577 226.969 100.423 227.036C100.28 227.093 100.184 227.208 100.136 227.381C100.088 227.543 100.065 227.802 100.065 228.156V235.277C100.065 235.622 100.093 235.885 100.151 236.067C100.208 236.239 100.318 236.359 100.481 236.426C100.653 236.483 100.902 236.512 101.227 236.512H102.362C102.687 236.512 102.931 236.483 103.094 236.426C103.266 236.359 103.381 236.239 103.439 236.067C103.496 235.885 103.525 235.622 103.525 235.277V228.156C103.525 227.802 103.501 227.543 103.453 227.381C103.405 227.208 103.309 227.093 103.166 227.036C103.022 226.969 102.802 226.931 102.505 226.921V226.634C102.716 226.644 102.974 226.653 103.281 226.663C103.587 226.672 103.888 226.677 104.185 226.677C104.558 226.677 104.908 226.672 105.233 226.663C105.559 226.653 105.822 226.644 106.023 226.634Z" fill="#57635C"/>
<path d="M114.836 226.562L118.339 235.593C118.483 235.957 118.646 236.201 118.828 236.325C119.009 236.44 119.177 236.502 119.33 236.512V236.799C119.139 236.78 118.904 236.77 118.627 236.77C118.349 236.761 118.071 236.756 117.794 236.756C117.421 236.756 117.071 236.761 116.746 236.77C116.42 236.77 116.157 236.78 115.956 236.799V236.512C116.444 236.493 116.755 236.411 116.889 236.268C117.023 236.115 116.995 235.794 116.803 235.306L114.133 228.17L114.362 227.984L111.864 234.473C111.711 234.856 111.62 235.181 111.592 235.449C111.563 235.708 111.587 235.914 111.663 236.067C111.749 236.22 111.888 236.33 112.08 236.397C112.281 236.464 112.53 236.502 112.826 236.512V236.799C112.558 236.78 112.276 236.77 111.979 236.77C111.692 236.761 111.424 236.756 111.175 236.756C110.936 236.756 110.73 236.761 110.558 236.77C110.395 236.77 110.242 236.78 110.098 236.799V236.512C110.29 236.464 110.486 236.354 110.687 236.182C110.888 236 111.07 235.693 111.233 235.263L114.607 226.562C114.645 226.562 114.683 226.562 114.721 226.562C114.76 226.562 114.798 226.562 114.836 226.562ZM116.588 232.664V232.951H112.309L112.453 232.664H116.588Z" fill="#57635C"/>
<path d="M124.373 226.433C125.004 226.433 125.521 226.529 125.923 226.72C126.335 226.902 126.699 227.117 127.014 227.366C127.206 227.51 127.349 227.529 127.445 227.424C127.55 227.309 127.622 227.046 127.66 226.634H127.991C127.972 226.988 127.957 227.419 127.948 227.926C127.938 228.433 127.933 229.103 127.933 229.936H127.603C127.536 229.525 127.474 229.199 127.416 228.96C127.359 228.711 127.287 228.5 127.201 228.328C127.124 228.156 127.019 227.984 126.885 227.811C126.588 227.419 126.215 227.136 125.765 226.964C125.315 226.782 124.842 226.691 124.344 226.691C123.875 226.691 123.449 226.811 123.066 227.05C122.693 227.28 122.367 227.615 122.09 228.055C121.822 228.496 121.611 229.027 121.458 229.649C121.314 230.271 121.243 230.97 121.243 231.745C121.243 232.549 121.324 233.262 121.487 233.884C121.65 234.497 121.874 235.014 122.162 235.435C122.458 235.856 122.803 236.177 123.195 236.397C123.597 236.608 124.028 236.713 124.487 236.713C124.918 236.713 125.368 236.627 125.837 236.454C126.306 236.282 126.675 236.005 126.943 235.622C127.153 235.344 127.297 235.043 127.373 234.717C127.459 234.392 127.536 233.937 127.603 233.353H127.933C127.933 234.224 127.938 234.928 127.948 235.464C127.957 235.99 127.972 236.435 127.991 236.799H127.66C127.622 236.387 127.555 236.129 127.459 236.024C127.373 235.918 127.225 235.933 127.014 236.067C126.66 236.316 126.282 236.536 125.88 236.727C125.488 236.909 124.98 237 124.358 237C123.449 237 122.65 236.794 121.961 236.383C121.281 235.971 120.75 235.378 120.367 234.602C119.994 233.827 119.807 232.894 119.807 231.803C119.807 230.731 120.003 229.793 120.396 228.989C120.788 228.185 121.324 227.558 122.004 227.108C122.693 226.658 123.482 226.433 124.373 226.433Z" fill="#57635C"/>
<path d="M137.43 226.634C137.392 226.998 137.363 227.352 137.344 227.696C137.335 228.031 137.33 228.29 137.33 228.472C137.33 228.701 137.335 228.917 137.344 229.118C137.354 229.319 137.363 229.496 137.373 229.649H137.043C136.976 228.979 136.885 228.453 136.77 228.07C136.655 227.677 136.454 227.395 136.167 227.223C135.88 227.05 135.435 226.964 134.832 226.964H134.056V235.134C134.056 235.516 134.09 235.804 134.157 235.995C134.233 236.186 134.377 236.316 134.588 236.383C134.798 236.45 135.104 236.493 135.506 236.512V236.799C135.258 236.78 134.942 236.77 134.559 236.77C134.176 236.761 133.788 236.756 133.396 236.756C132.965 236.756 132.558 236.761 132.176 236.77C131.802 236.77 131.501 236.78 131.271 236.799V236.512C131.673 236.493 131.979 236.45 132.19 236.383C132.4 236.316 132.539 236.186 132.606 235.995C132.683 235.804 132.721 235.516 132.721 235.134V226.964H131.946C131.352 226.964 130.907 227.05 130.611 227.223C130.323 227.395 130.122 227.677 130.008 228.07C129.893 228.453 129.802 228.979 129.735 229.649H129.405C129.424 229.496 129.433 229.319 129.433 229.118C129.443 228.917 129.448 228.701 129.448 228.472C129.448 228.29 129.438 228.031 129.419 227.696C129.409 227.352 129.385 226.998 129.347 226.634C129.749 226.644 130.185 226.653 130.654 226.663C131.132 226.672 131.611 226.677 132.089 226.677C132.568 226.677 133.003 226.677 133.396 226.677C133.788 226.677 134.219 226.677 134.688 226.677C135.167 226.677 135.645 226.672 136.124 226.663C136.602 226.653 137.038 226.644 137.43 226.634Z" fill="#57635C"/>
<path d="M138.451 226.634C138.652 226.644 138.915 226.653 139.241 226.663C139.566 226.672 139.887 226.677 140.203 226.677C140.653 226.677 141.083 226.672 141.495 226.663C141.906 226.653 142.198 226.648 142.371 226.648C143.529 226.648 144.395 226.912 144.969 227.438C145.544 227.964 145.831 228.644 145.831 229.477C145.831 229.821 145.773 230.185 145.658 230.568C145.544 230.941 145.343 231.291 145.055 231.616C144.778 231.932 144.395 232.19 143.907 232.391C143.419 232.592 142.801 232.693 142.055 232.693H140.676V232.406H141.911C142.591 232.406 143.108 232.276 143.462 232.018C143.826 231.76 144.07 231.42 144.194 230.999C144.328 230.577 144.395 230.123 144.395 229.635C144.395 228.725 144.213 228.046 143.849 227.596C143.495 227.146 142.883 226.921 142.012 226.921C141.571 226.921 141.284 227.002 141.15 227.165C141.016 227.328 140.949 227.658 140.949 228.156V235.277C140.949 235.622 140.983 235.88 141.05 236.052C141.126 236.225 141.27 236.34 141.48 236.397C141.691 236.454 141.997 236.493 142.399 236.512V236.799C142.15 236.78 141.835 236.77 141.452 236.77C141.069 236.761 140.681 236.756 140.289 236.756C139.916 236.756 139.566 236.761 139.241 236.77C138.915 236.77 138.652 236.78 138.451 236.799V236.512C138.776 236.493 139.021 236.454 139.183 236.397C139.356 236.34 139.47 236.225 139.528 236.052C139.585 235.88 139.614 235.622 139.614 235.277V228.156C139.614 227.802 139.585 227.543 139.528 227.381C139.47 227.208 139.356 227.093 139.183 227.036C139.021 226.969 138.776 226.931 138.451 226.921V226.634Z" fill="#57635C"/>
<path d="M151.573 226.433C152.482 226.433 153.277 226.639 153.956 227.05C154.646 227.462 155.177 228.055 155.55 228.831C155.933 229.596 156.124 230.53 156.124 231.63C156.124 232.702 155.928 233.64 155.536 234.444C155.153 235.248 154.617 235.875 153.928 236.325C153.239 236.775 152.449 237 151.559 237C150.649 237 149.85 236.794 149.161 236.383C148.482 235.971 147.95 235.378 147.567 234.602C147.194 233.827 147.008 232.894 147.008 231.803C147.008 230.731 147.204 229.793 147.596 228.989C147.989 228.185 148.525 227.558 149.204 227.108C149.893 226.658 150.683 226.433 151.573 226.433ZM151.516 226.691C150.894 226.691 150.353 226.907 149.893 227.337C149.434 227.768 149.075 228.362 148.817 229.118C148.568 229.874 148.443 230.75 148.443 231.745C148.443 232.76 148.582 233.645 148.86 234.401C149.147 235.148 149.53 235.727 150.008 236.139C150.496 236.541 151.032 236.742 151.616 236.742C152.238 236.742 152.779 236.526 153.239 236.095C153.698 235.665 154.052 235.071 154.301 234.315C154.559 233.549 154.689 232.674 154.689 231.688C154.689 230.664 154.545 229.778 154.258 229.032C153.98 228.285 153.602 227.711 153.124 227.309C152.645 226.897 152.109 226.691 151.516 226.691Z" fill="#57635C"/>
<path d="M165.883 226.634V226.921C165.557 226.931 165.309 226.969 165.136 227.036C164.974 227.093 164.864 227.208 164.806 227.381C164.749 227.543 164.72 227.802 164.72 228.156V235.277C164.72 235.622 164.749 235.88 164.806 236.052C164.864 236.225 164.974 236.34 165.136 236.397C165.309 236.454 165.557 236.493 165.883 236.512V236.799C165.682 236.78 165.419 236.77 165.093 236.77C164.768 236.761 164.418 236.756 164.045 236.756C163.662 236.756 163.275 236.761 162.882 236.77C162.499 236.77 162.183 236.78 161.935 236.799V236.512C162.337 236.493 162.643 236.454 162.853 236.397C163.064 236.34 163.203 236.225 163.27 236.052C163.346 235.88 163.385 235.622 163.385 235.277V228.156C163.385 227.802 163.356 227.538 163.299 227.366C163.241 227.194 163.126 227.079 162.954 227.022C162.791 226.955 162.547 226.921 162.222 226.921H162.035C161.7 226.921 161.451 226.955 161.289 227.022C161.135 227.079 161.035 227.199 160.987 227.381C160.939 227.553 160.901 227.811 160.872 228.156C160.824 228.721 160.776 229.328 160.729 229.979C160.69 230.63 160.638 231.286 160.571 231.946C160.513 232.607 160.422 233.238 160.298 233.841C160.173 234.444 160.011 234.985 159.81 235.464C159.609 235.933 159.35 236.306 159.034 236.584C158.719 236.861 158.331 237 157.871 237C157.556 237 157.259 236.928 156.981 236.785C156.704 236.631 156.565 236.378 156.565 236.024C156.565 235.775 156.646 235.579 156.809 235.435C156.972 235.282 157.173 235.205 157.412 235.205C157.623 235.205 157.795 235.263 157.929 235.378C158.072 235.492 158.144 235.646 158.144 235.837C158.144 236.048 158.092 236.22 157.986 236.354C157.881 236.478 157.728 236.598 157.527 236.713C157.594 236.722 157.656 236.727 157.714 236.727C157.781 236.727 157.833 236.727 157.871 236.727C158.312 236.727 158.68 236.56 158.977 236.225C159.274 235.89 159.513 235.435 159.695 234.861C159.886 234.277 160.035 233.616 160.14 232.879C160.245 232.142 160.327 231.372 160.384 230.568C160.441 229.754 160.494 228.95 160.542 228.156C160.571 227.821 160.556 227.567 160.499 227.395C160.451 227.223 160.336 227.103 160.154 227.036C159.982 226.969 159.724 226.931 159.379 226.921V226.634C159.58 226.644 159.819 226.653 160.097 226.663C160.374 226.672 160.628 226.677 160.858 226.677C161.078 226.677 161.289 226.672 161.49 226.663C161.7 226.644 161.911 226.634 162.121 226.634C162.485 226.634 162.815 226.644 163.112 226.663C163.409 226.672 163.763 226.677 164.174 226.677C164.366 226.677 164.567 226.677 164.777 226.677C164.988 226.667 165.189 226.663 165.38 226.663C165.581 226.653 165.749 226.644 165.883 226.634Z" fill="#57635C"/>
<path d="M171.707 226.433C172.616 226.433 173.411 226.639 174.09 227.05C174.78 227.462 175.311 228.055 175.684 228.831C176.067 229.596 176.258 230.53 176.258 231.63C176.258 232.702 176.062 233.64 175.67 234.444C175.287 235.248 174.751 235.875 174.062 236.325C173.373 236.775 172.583 237 171.693 237C170.784 237 169.984 236.794 169.295 236.383C168.616 235.971 168.084 235.378 167.701 234.602C167.328 233.827 167.142 232.894 167.142 231.803C167.142 230.731 167.338 229.793 167.73 228.989C168.123 228.185 168.659 227.558 169.338 227.108C170.027 226.658 170.817 226.433 171.707 226.433ZM171.65 226.691C171.028 226.691 170.487 226.907 170.027 227.337C169.568 227.768 169.209 228.362 168.951 229.118C168.702 229.874 168.577 230.75 168.577 231.745C168.577 232.76 168.716 233.645 168.994 234.401C169.281 235.148 169.664 235.727 170.142 236.139C170.63 236.541 171.166 236.742 171.75 236.742C172.372 236.742 172.913 236.526 173.373 236.095C173.832 235.665 174.186 235.071 174.435 234.315C174.694 233.549 174.823 232.674 174.823 231.688C174.823 230.664 174.679 229.778 174.392 229.032C174.114 228.285 173.736 227.711 173.258 227.309C172.779 226.897 172.243 226.691 171.65 226.691Z" fill="#57635C"/>
<path d="M184.103 226.634C184.065 226.998 184.036 227.352 184.017 227.696C184.008 228.031 184.003 228.29 184.003 228.472C184.003 228.701 184.008 228.917 184.017 229.118C184.027 229.319 184.036 229.496 184.046 229.649H183.716C183.649 228.979 183.558 228.453 183.443 228.07C183.328 227.677 183.127 227.395 182.84 227.223C182.553 227.05 182.108 226.964 181.505 226.964H181.174C180.849 226.964 180.6 226.993 180.428 227.05C180.265 227.098 180.155 227.208 180.098 227.381C180.04 227.543 180.011 227.802 180.011 228.156V235.277C180.011 235.622 180.045 235.88 180.112 236.052C180.189 236.225 180.332 236.34 180.543 236.397C180.753 236.454 181.06 236.493 181.462 236.512V236.799C181.213 236.78 180.897 236.77 180.514 236.77C180.131 236.761 179.743 236.756 179.351 236.756C178.978 236.756 178.628 236.761 178.303 236.77C177.977 236.77 177.714 236.78 177.513 236.799V236.512C177.839 236.493 178.083 236.454 178.245 236.397C178.418 236.34 178.533 236.225 178.59 236.052C178.648 235.88 178.676 235.622 178.676 235.277V228.156C178.676 227.802 178.648 227.543 178.59 227.381C178.533 227.208 178.418 227.093 178.245 227.036C178.083 226.969 177.839 226.931 177.513 226.921V226.634C177.867 226.644 178.241 226.653 178.633 226.663C179.026 226.663 179.413 226.667 179.796 226.677C180.179 226.677 180.533 226.677 180.859 226.677C181.194 226.677 181.466 226.677 181.677 226.677C182.031 226.677 182.433 226.677 182.883 226.677C183.342 226.667 183.749 226.653 184.103 226.634Z" fill="#57635C"/>
</svg>
