<svg width="22" height="22" viewBox="0 0 22 22" fill="none" xmlns="http://www.w3.org/2000/svg">
<path fill-rule="evenodd" clip-rule="evenodd" d="M0.885742 21.1847L2.36312 15.7866C1.56761 14.3093 1.11303 12.6614 1.11303 10.9568C1.11303 5.44501 5.60198 0.956055 11.1137 0.956055C16.6255 0.956055 21.1144 5.44501 21.1144 10.9568C21.1144 16.4685 16.6255 20.9575 11.1137 20.9575C9.46589 20.9575 7.81805 20.5597 6.34067 19.7642L0.885742 21.1847ZM6.62478 17.6618L6.96571 17.8891C8.2158 18.6278 9.63636 19.0255 11.1137 19.0255C15.5459 19.0255 19.1825 15.3889 19.1825 10.8999C19.1825 6.46781 15.5459 2.83119 11.1137 2.83119C6.62478 2.83119 2.98816 6.46781 2.98816 10.8999C2.98816 12.3773 3.38592 13.8547 4.18143 15.1048L4.40872 15.4457L3.55638 18.5141L6.62478 17.6618Z" fill="#717D6B"/>
<path d="M14.3995 12.4007C14.0173 12.1656 13.5258 11.8717 13.0344 12.1068C12.7068 12.2244 12.4338 12.871 12.2154 13.1649C12.1062 13.3217 11.9605 13.3608 11.7785 13.2825C10.4134 12.6946 9.43059 11.6953 8.66614 10.4021C8.55693 10.167 8.55693 10.0494 8.72074 9.81428C8.93916 9.52036 9.21217 9.22645 9.26678 8.87375C9.32138 8.46227 9.15757 7.99201 9.04836 7.69809C8.82995 7.22783 8.61153 6.64 8.22931 6.40487C7.84709 6.16974 7.35566 6.2873 7.02804 6.58122C6.482 7.05148 6.20898 7.87444 6.20898 8.63862C6.20898 8.87375 6.22719 9.08929 6.26359 9.28523C6.37279 9.81428 6.59121 10.2845 6.86423 10.7548C7.04624 11.0683 7.24645 11.4014 7.46486 11.7541C8.17471 12.8122 9.10297 13.694 10.0858 14.3993C10.6319 14.6933 11.1779 15.046 11.7785 15.2223C12.3792 15.4574 12.9798 15.6926 13.6897 15.575C14.3995 15.3987 15.1093 14.9284 15.437 14.1642C15.4916 13.9291 15.5462 13.694 15.4916 13.4588C15.3824 12.9298 14.7817 12.6359 14.3995 12.4007Z" fill="#717D6B"/>
</svg>
