<svg width="60" height="61" viewBox="0 0 60 61" fill="none" xmlns="http://www.w3.org/2000/svg">
<path d="M7.61415 46.8709L7.81187 46.2026L7.42864 45.6205C4.64369 41.3905 3.02344 36.3193 3.02344 30.8785C3.02344 16.0142 15.0991 3.95811 30 3.95811C44.9013 3.95811 56.9766 16.0146 56.9766 30.8668C56.9766 45.7311 44.9009 57.7872 30 57.7872C24.9456 57.7872 20.2185 56.402 16.1797 53.988L15.6289 53.6588L15.0104 53.8298L4.71291 56.6768L7.61415 46.8709Z" fill="#25D366" stroke="white" stroke-width="3"/>
<path d="M37.7764 44.1467C36.0474 43.9363 33.4841 43.4298 30.6606 42.0754L30.6603 42.0753C27.6044 40.6105 25.6791 38.8587 24.0318 37.342L24.0318 37.342L24.0259 37.3366C22.5797 36.0193 20.5272 34.0993 18.6363 30.9981L18.6343 30.9948C17.5168 29.1729 16.7743 27.4484 16.263 25.9954C15.7839 24.6286 15.7153 23.1739 16.0991 21.8411C16.1123 21.7972 16.1261 21.7535 16.1432 21.6996L16.1443 21.6961C16.1594 21.6483 16.1773 21.5918 16.1957 21.5311C16.5588 20.4431 17.1057 19.6155 17.5628 19.0623L17.5628 19.0623L17.5697 19.0539C17.9343 18.606 18.3511 18.2885 18.79 18.2246C19.0106 18.196 19.3775 18.1912 19.9247 18.203L19.9409 18.2034H19.9572C20.1571 18.2034 20.2771 18.2041 20.3779 18.2113L20.3947 18.2125L20.4116 18.2133C20.5775 18.2214 20.6978 18.2796 20.7713 18.3456L20.7791 18.3526L20.7858 18.3585L20.7861 18.3588L20.7865 18.3591L20.7865 18.3591L20.7867 18.3593L20.7868 18.3594L20.7869 18.3595L20.787 18.3595L20.7928 18.3647L20.8204 18.3896C20.8268 18.3954 20.8332 18.4013 20.8395 18.4071C20.8475 18.4196 20.8579 18.4365 20.8707 18.4583C20.9252 18.5506 20.9969 18.685 21.0847 18.8637C21.2597 19.2196 21.4664 19.6857 21.6858 20.2074C22.1218 21.2439 22.5783 22.4296 22.8866 23.2479C23.1398 23.9444 23.1774 24.6502 22.9975 25.2682C22.9799 25.312 22.9629 25.3601 22.9477 25.4122C22.569 26.5375 21.7356 27.1654 21.4037 27.3893L20.2684 28.1548L20.9276 29.355C21.8471 31.0291 23.4974 33.6149 26.3164 36.0285C28.6683 38.0508 30.9951 39.2493 32.7215 39.961C33.6678 40.3513 34.7309 40.0811 35.3894 39.334L38.091 36.2931C39.0506 36.7326 40.0117 37.1719 40.9723 37.611L40.9735 37.6115C42.039 38.0986 43.104 38.5854 44.1665 39.0722C44.1784 39.3596 44.1711 39.6727 44.1235 40.0189L44.1095 40.1206V40.1377C43.917 41.2272 43.2604 42.2303 42.2917 42.9184L42.2811 42.9259L42.2707 42.9336C41.8949 43.2104 41.4064 43.4865 40.7974 43.7223C39.5074 44.2074 38.3811 44.2012 37.7764 44.1467Z" fill="white" stroke="white" stroke-width="3"/>
</svg>
