<svg width="22" height="21" viewBox="0 0 22 21" fill="none" xmlns="http://www.w3.org/2000/svg">
<path fill-rule="evenodd" clip-rule="evenodd" d="M0.808594 21L2.34108 15.4006C1.51589 13.8681 1.04436 12.1588 1.04436 10.3905C1.04436 4.67318 5.70075 0.0167847 11.4181 0.0167847C17.1354 0.0167847 21.7918 4.67318 21.7918 10.3905C21.7918 16.1079 17.1354 20.7643 11.4181 20.7643C9.70879 20.7643 7.99948 20.3517 6.46699 19.5265L0.808594 21ZM6.7617 17.3456L7.11535 17.5814C8.41207 18.3476 9.88561 18.7602 11.4181 18.7602C16.0155 18.7602 19.7878 14.988 19.7878 10.3316C19.7878 5.73413 16.0155 1.96186 11.4181 1.96186C6.7617 1.96186 2.98944 5.73413 2.98944 10.3316C2.98944 11.8641 3.40203 13.3965 4.22721 14.6933L4.46298 15.0469L3.57885 18.2298L6.7617 17.3456Z" fill="#717D6B"/>
<path d="M14.8261 11.8879C14.4296 11.644 13.9199 11.3392 13.4101 11.5831C13.0703 11.705 12.7871 12.3757 12.5605 12.6806C12.4472 12.8432 12.2962 12.8839 12.1074 12.8026C10.6914 12.1928 9.67185 11.1562 8.87888 9.81477C8.7656 9.57087 8.7656 9.44891 8.93553 9.20501C9.16209 8.90013 9.44529 8.59526 9.50193 8.2294C9.55857 7.80257 9.38865 7.31477 9.27537 7.00989C9.04881 6.52209 8.82225 5.91233 8.42576 5.66843C8.02928 5.42453 7.51952 5.54648 7.17968 5.85136C6.61328 6.33916 6.33008 7.19282 6.33008 7.9855C6.33008 8.2294 6.34896 8.45298 6.38672 8.65623C6.5 9.20501 6.72656 9.69282 7.00976 10.1806C7.19856 10.5058 7.40624 10.8514 7.6328 11.2172C8.36912 12.3148 9.33201 13.2294 10.3515 13.9611C10.9179 14.266 11.4843 14.6318 12.1074 14.8148C12.7304 15.0587 13.3535 15.3026 14.0898 15.1806C14.8261 14.9977 15.5624 14.5099 15.9023 13.7172C15.9589 13.4733 16.0155 13.2294 15.9589 12.9855C15.8456 12.4367 15.2226 12.1318 14.8261 11.8879Z" fill="#717D6B"/>
</svg>
