<svg width="30" height="22" viewBox="0 0 30 22" fill="none" xmlns="http://www.w3.org/2000/svg">
<path d="M23.301 0.405763H6.56786C3.42018 0.405763 0.860719 2.97409 0.860719 6.13011V15.4579C0.860719 18.614 3.42018 21.1823 6.56786 21.1823H23.301C26.4487 21.1823 29.0082 18.614 29.0082 15.4579V6.13011C29.0082 2.97409 26.4487 0.405763 23.301 0.405763ZM27.5097 15.4579C27.5097 17.7885 25.6208 19.6838 23.301 19.6838H6.56786C4.2481 19.6838 2.35922 17.7885 2.35922 15.4579V6.13011C2.35922 3.79959 4.2481 1.90426 6.56786 1.90426H23.301C25.6208 1.90426 27.5097 3.79959 27.5097 6.13011V15.4579Z" fill="#717D6B" stroke="#717D6B" stroke-width="0.3645"/>
<path d="M12.1578 5.89315L12.1578 5.89316L20.0135 10.4945L12.1578 5.89315ZM12.1578 5.89315C11.9497 5.77132 11.6903 5.76926 11.4798 5.88992L12.1578 5.89315ZM11.4795 16.2652L11.4794 16.2651C11.2694 16.1446 11.1397 15.9207 11.1397 15.6783V6.47672C11.1397 6.23431 11.2695 6.01044 11.4798 5.88992L11.4795 16.2652ZM11.4795 16.2652C11.5839 16.3249 11.7001 16.3547 11.816 16.3547C11.9343 16.3547 12.0522 16.3236 12.1577 16.262L12.1578 16.2619M11.4795 16.2652L12.1578 16.2619M12.1578 16.2619L20.0136 11.6617M12.1578 16.2619L20.0136 11.6617M20.0136 11.6617C20.2207 11.5405 20.3482 11.3182 20.3482 11.0781M20.0136 11.6617L20.3482 11.0781M20.3482 11.0781C20.3482 10.8381 20.2211 10.6158 20.0136 10.4945L20.3482 11.0781ZM12.4924 14.4983V7.65675L18.3333 11.0781L12.4924 14.4983Z" fill="#717D6B" stroke="#717D6B" stroke-width="0.2187"/>
</svg>
