<svg width="28" height="22" viewBox="0 0 28 22" fill="none" xmlns="http://www.w3.org/2000/svg">
<path d="M22.0661 0.87362H5.93462C2.90013 0.87362 0.432702 3.34959 0.432702 6.39213V15.3845C0.432702 18.4271 2.90013 20.903 5.93462 20.903H22.0661C25.1006 20.903 27.568 18.4271 27.568 15.3845V6.39213C27.568 3.34959 25.1006 0.87362 22.0661 0.87362ZM26.1234 15.3845C26.1234 17.6313 24.3024 19.4584 22.0661 19.4584H5.93462C3.69827 19.4584 1.87732 17.6313 1.87732 15.3845V6.39213C1.87732 4.14541 3.69827 2.31824 5.93462 2.31824H22.0661C24.3024 2.31824 26.1234 4.14541 26.1234 6.39213V15.3845Z" fill="#717D6B" stroke="#717D6B" stroke-width="0.351393"/>
<path d="M11.3244 6.1635L11.3244 6.16351L18.8976 10.5994L11.3244 6.1635ZM11.3244 6.1635C11.1238 6.04605 10.8737 6.04407 10.6707 6.16038L11.3244 6.1635ZM10.6704 16.1625L10.6704 16.1625C10.4679 16.0463 10.3428 15.8305 10.3428 15.5968V6.72609C10.3428 6.49239 10.4679 6.27657 10.6707 6.16039L10.6704 16.1625ZM10.6704 16.1625C10.7711 16.2202 10.8831 16.2489 10.9949 16.2489C11.1089 16.2489 11.2225 16.2189 11.3243 16.1595L11.3244 16.1594M10.6704 16.1625L11.3244 16.1594M11.3244 16.1594L18.8977 11.7246M11.3244 16.1594L18.8977 11.7246M18.8977 11.7246C18.8977 11.7246 18.8977 11.7246 18.8977 11.7246C19.0973 11.6077 19.2202 11.3935 19.2202 11.162M18.8977 11.7246L19.2202 11.162M19.2202 11.162C19.2202 10.9306 19.0977 10.7163 18.8977 10.5994L19.2202 11.162ZM11.6469 14.4593V7.86368L17.2778 11.162L11.6469 14.4593Z" fill="#717D6B" stroke="#717D6B" stroke-width="0.210836"/>
</svg>
